<?xml version="1.0" encoding="utf-8"?>
<!-- Generator: Adobe Illustrator 23.0.3, SVG Export Plug-In . SVG Version: 6.00 Build 0)  -->
<svg version="1.1" id="Camada_1" xmlns="http://www.w3.org/2000/svg" xmlns:xlink="http://www.w3.org/1999/xlink" x="0px" y="0px"
	 viewBox="0 0 349 350" style="enable-background:new 0 0 349 350;" xml:space="preserve">
<style type="text/css">
	.st0{fill:#FFFFFF;}
	.st1{opacity:0.5;fill:#006cff;enable-background:new    ;}
	.st2{opacity:0.2;fill:#006cff;enable-background:new    ;}
	.st3{fill:url(#SVGID_1_);}
	.st4{fill:#006cff;}
	.st5{fill:url(#SVGID_2_);}
	.st6{fill:none;}
	.st7{fill:url(#SVGID_3_);}
	.st8{fill:#2196F3;}
	.st9{fill:url(#SVGID_4_);}
	.st10{fill:url(#SVGID_5_);}
	.st11{fill:url(#SVGID_6_);}
	.st12{fill:url(#SVGID_7_);}
	.st13{fill:url(#SVGID_8_);}
	.st14{fill:url(#SVGID_9_);}
	.st15{fill:url(#SVGID_10_);}
	.st16{fill:url(#SVGID_11_);}
	.st17{fill:url(#SVGID_12_);}
	.st18{fill:url(#SVGID_13_);}
	.st19{fill:url(#SVGID_14_);}
	.st20{fill:url(#SVGID_15_);}
	.st21{fill:#69F0AE;}
</style>
<title>calendar</title>
<g>
	<rect x="66.1" y="11.5" class="st0" width="92" height="73.5"/>
	<rect x="66.1" y="86.5" class="st1" width="92" height="73.5"/>
	<rect x="159.1" y="86.5" class="st2" width="92" height="73.5"/>
	<rect x="252.1" y="86.5" class="st0" width="92" height="73.5"/>
	
		<linearGradient id="SVGID_1_" gradientUnits="userSpaceOnUse" x1="174.5" y1="-304.575" x2="174.5" y2="38.525" gradientTransform="matrix(1 0 0 -1 0 42)">
		<stop  offset="0" style="stop-color:#808080;stop-opacity:0.25"/>
		<stop  offset="0.54" style="stop-color:#808080;stop-opacity:0.12"/>
		<stop  offset="1" style="stop-color:#808080;stop-opacity:0.1"/>
	</linearGradient>
	<circle class="st3" cx="174.5" cy="175" r="171.5"/>
	<circle class="st4" cx="174.5" cy="175" r="166.9"/>
	<circle class="st0" cx="174.5" cy="175" r="135.6"/>
	
		<linearGradient id="SVGID_2_" gradientUnits="userSpaceOnUse" x1="174.5" y1="-141.135" x2="174.5" y2="-124.915" gradientTransform="matrix(1 0 0 -1 0 42)">
		<stop  offset="0" style="stop-color:#808080;stop-opacity:0.25"/>
		<stop  offset="0.54" style="stop-color:#808080;stop-opacity:0.12"/>
		<stop  offset="1" style="stop-color:#808080;stop-opacity:0.1"/>
	</linearGradient>
	<circle class="st5" cx="174.5" cy="175" r="8.1"/>
	<line class="st6" x1="219.7" y1="70.7" x2="175.7" y2="175"/>
	
		<linearGradient id="SVGID_3_" gradientUnits="userSpaceOnUse" x1="197.56" y1="-134.025" x2="197.56" y2="-27.025" gradientTransform="matrix(1 0 0 -1 0 42)">
		<stop  offset="0" style="stop-color:#808080;stop-opacity:0.25"/>
		<stop  offset="0.54" style="stop-color:#808080;stop-opacity:0.12"/>
		<stop  offset="1" style="stop-color:#808080;stop-opacity:0.1"/>
	</linearGradient>
	<polygon class="st7" points="177.6,176 172.6,174.3 217.6,69 222.6,71.4 	"/>
	
		<rect x="141.1" y="121.1" transform="matrix(0.389 -0.9213 0.9213 0.389 7.6278 257.1624)" class="st8" width="113.2" height="3.5"/>
	<line class="st6" x1="175.7" y1="176.2" x2="204.6" y2="229.5"/>
	
		<linearGradient id="SVGID_4_" gradientUnits="userSpaceOnUse" x1="190.56" y1="-189.025" x2="190.56" y2="-133.025" gradientTransform="matrix(1 0 0 -1 0 42)">
		<stop  offset="0" style="stop-color:#808080;stop-opacity:0.25"/>
		<stop  offset="0.54" style="stop-color:#808080;stop-opacity:0.12"/>
		<stop  offset="1" style="stop-color:#808080;stop-opacity:0.1"/>
	</linearGradient>
	<polygon class="st9" points="202.6,231 173.6,177 177.6,175 207.6,228 	"/>
	
		<rect x="188.4" y="172.5" transform="matrix(0.8787 -0.4775 0.4775 0.8787 -73.7958 115.4011)" class="st8" width="3.5" height="60.7"/>
	<circle class="st4" cx="300.8" cy="178.5" r="3.5"/>
	
		<linearGradient id="SVGID_5_" gradientUnits="userSpaceOnUse" x1="620.2955" y1="-487.0896" x2="620.2955" y2="-478.0596" gradientTransform="matrix(0.5 0.866 0.866 -0.5 173.4353 -665.9344)">
		<stop  offset="0" style="stop-color:#808080;stop-opacity:0.25"/>
		<stop  offset="0.54" style="stop-color:#808080;stop-opacity:0.12"/>
		<stop  offset="1" style="stop-color:#808080;stop-opacity:0.1"/>
	</linearGradient>
	<circle class="st10" cx="65.7" cy="112.5" r="4.5"/>
	
		<linearGradient id="SVGID_6_" gradientUnits="userSpaceOnUse" x1="249.0187" y1="-323.695" x2="249.0187" y2="-314.665" gradientTransform="matrix(1 0 0 -1 -182.1958 -77.9857)">
		<stop  offset="0" style="stop-color:#808080;stop-opacity:0.25"/>
		<stop  offset="0.54" style="stop-color:#808080;stop-opacity:0.12"/>
		<stop  offset="1" style="stop-color:#808080;stop-opacity:0.1"/>
	</linearGradient>
	<circle class="st11" cx="66.8" cy="241.2" r="4.5"/>
	
		<linearGradient id="SVGID_7_" gradientUnits="userSpaceOnUse" x1="412.7732" y1="-456.8352" x2="412.7732" y2="-447.7937" gradientTransform="matrix(0.866 0.5 0.5 -0.866 -83.1548 -419.5974)">
		<stop  offset="0" style="stop-color:#808080;stop-opacity:0.25"/>
		<stop  offset="0.54" style="stop-color:#808080;stop-opacity:0.12"/>
		<stop  offset="1" style="stop-color:#808080;stop-opacity:0.1"/>
	</linearGradient>
	<circle class="st12" cx="48.2" cy="178.5" r="4.5"/>
	
		<linearGradient id="SVGID_8_" gradientUnits="userSpaceOnUse" x1="817.1556" y1="-411.5322" x2="817.1556" y2="-402.4907" gradientTransform="matrix(0 1 1 0 518.8043 -750.9786)">
		<stop  offset="0" style="stop-color:#808080;stop-opacity:0.25"/>
		<stop  offset="0.54" style="stop-color:#808080;stop-opacity:0.12"/>
		<stop  offset="1" style="stop-color:#808080;stop-opacity:0.1"/>
	</linearGradient>
	<circle class="st13" cx="111.8" cy="66.2" r="4.5"/>
	
		<linearGradient id="SVGID_9_" gradientUnits="userSpaceOnUse" x1="800.9346" y1="-348.9366" x2="800.9346" y2="-339.8951" gradientTransform="matrix(0 1 1 0 518.8032 -750.9794)">
		<stop  offset="0" style="stop-color:#808080;stop-opacity:0.25"/>
		<stop  offset="0.54" style="stop-color:#808080;stop-opacity:0.12"/>
		<stop  offset="1" style="stop-color:#808080;stop-opacity:0.1"/>
	</linearGradient>
	<circle class="st14" cx="174.4" cy="50" r="4.5"/>
	
		<linearGradient id="SVGID_10_" gradientUnits="userSpaceOnUse" x1="817.1501" y1="-286.3428" x2="817.1501" y2="-277.3128" gradientTransform="matrix(0 1 1 0 518.8026 -750.9681)">
		<stop  offset="0" style="stop-color:#808080;stop-opacity:0.25"/>
		<stop  offset="0.54" style="stop-color:#808080;stop-opacity:0.12"/>
		<stop  offset="1" style="stop-color:#808080;stop-opacity:0.1"/>
	</linearGradient>
	<circle class="st15" cx="237" cy="66.2" r="4.5"/>
	
		<linearGradient id="SVGID_11_" gradientUnits="userSpaceOnUse" x1="863.5241" y1="-239.9849" x2="863.5241" y2="-230.9434" gradientTransform="matrix(0 1 1 0 518.8086 -750.9745)">
		<stop  offset="0" style="stop-color:#808080;stop-opacity:0.25"/>
		<stop  offset="0.54" style="stop-color:#808080;stop-opacity:0.12"/>
		<stop  offset="1" style="stop-color:#808080;stop-opacity:0.1"/>
	</linearGradient>
	<circle class="st16" cx="283.3" cy="112.5" r="4.5"/>
	
		<linearGradient id="SVGID_12_" gradientUnits="userSpaceOnUse" x1="992.188" y1="-241.1374" x2="992.188" y2="-232.0959" gradientTransform="matrix(0 1 1 0 518.8065 -750.9756)">
		<stop  offset="0" style="stop-color:#808080;stop-opacity:0.25"/>
		<stop  offset="0.54" style="stop-color:#808080;stop-opacity:0.12"/>
		<stop  offset="1" style="stop-color:#808080;stop-opacity:0.1"/>
	</linearGradient>
	<circle class="st17" cx="282.2" cy="241.2" r="4.5"/>
	
		<linearGradient id="SVGID_13_" gradientUnits="userSpaceOnUse" x1="1037.3962" y1="-288.6602" x2="1037.3962" y2="-279.6302" gradientTransform="matrix(0 1 1 0 518.8008 -750.9807)">
		<stop  offset="0" style="stop-color:#808080;stop-opacity:0.25"/>
		<stop  offset="0.54" style="stop-color:#808080;stop-opacity:0.12"/>
		<stop  offset="1" style="stop-color:#808080;stop-opacity:0.1"/>
	</linearGradient>
	<circle class="st18" cx="234.7" cy="286.4" r="4.5"/>
	
		<linearGradient id="SVGID_14_" gradientUnits="userSpaceOnUse" x1="1051.3098" y1="-348.9392" x2="1051.3098" y2="-339.8977" gradientTransform="matrix(0 1 1 0 518.8008 -750.9779)">
		<stop  offset="0" style="stop-color:#808080;stop-opacity:0.25"/>
		<stop  offset="0.54" style="stop-color:#808080;stop-opacity:0.12"/>
		<stop  offset="1" style="stop-color:#808080;stop-opacity:0.1"/>
	</linearGradient>
	<circle class="st19" cx="174.4" cy="300.3" r="4.5"/>
	
		<linearGradient id="SVGID_15_" gradientUnits="userSpaceOnUse" x1="1037.3922" y1="-409.2132" x2="1037.3922" y2="-400.1832" gradientTransform="matrix(0 1 1 0 518.8044 -750.9717)">
		<stop  offset="0" style="stop-color:#808080;stop-opacity:0.25"/>
		<stop  offset="0.54" style="stop-color:#808080;stop-opacity:0.12"/>
		<stop  offset="1" style="stop-color:#808080;stop-opacity:0.1"/>
	</linearGradient>
	<circle class="st20" cx="114.1" cy="286.4" r="4.5"/>
	<circle class="st21" cx="174.5" cy="49.8" r="3.5"/>
	<circle class="st21" cx="237.1" cy="66.6" r="3.5"/>
	<ellipse transform="matrix(0.866 -0.5 0.5 0.866 -18.3124 156.519)" class="st21" cx="282.9" cy="112.4" rx="3.5" ry="3.5"/>
	<ellipse transform="matrix(0.5 -0.866 0.866 0.5 -67.7958 364.9841)" class="st21" cx="282.2" cy="241.2" rx="3.5" ry="3.5"/>
	<ellipse transform="matrix(0.866 -0.5 0.5 0.866 -111.6502 155.6714)" class="st21" cx="234.7" cy="286.2" rx="3.5" ry="3.5"/>
	<circle class="st21" cx="111.9" cy="66.6" r="3.5"/>
	<ellipse transform="matrix(0.5 -0.866 0.866 0.5 -64.3244 113.4529)" class="st21" cx="66.1" cy="112.4" rx="3.5" ry="3.5"/>
	<ellipse transform="matrix(0.866 -0.5 0.5 0.866 -49.0201 174.3009)" class="st21" cx="300.7" cy="178.6" rx="4.5" ry="4.5"/>
	<ellipse transform="matrix(0.866 -0.5 0.5 0.866 -111.6488 65.7265)" class="st21" cx="66.8" cy="241.2" rx="3.5" ry="3.5"/>
	<ellipse transform="matrix(0.5 -0.866 0.866 0.5 -190.6722 242.1106)" class="st21" cx="114.3" cy="286.2" rx="3.5" ry="3.5"/>
	<circle class="st21" cx="48.2" cy="178.5" r="3.5"/>
	<circle class="st21" cx="174.5" cy="300.2" r="3.5"/>
	<path class="st2" d="M45.8,187.8c0-74.9,60.8-135.6,135.7-135.6c48.6,0,93.4,26,117.6,68.1c-29.6-68.8-109.4-100.6-178.2-71
		s-100.6,109.4-71,178.2c2,4.7,4.3,9.3,6.9,13.8C49.6,224.4,45.8,206.2,45.8,187.8z"/>
	<circle class="st21" cx="174.5" cy="175" r="5.8"/>
</g>
</svg>
