<?xml version="1.0" encoding="utf-8"?>
<!-- Generator: Adobe Illustrator 23.0.3, SVG Export Plug-In . SVG Version: 6.00 Build 0)  -->
<svg version="1.1" id="Camada_1" xmlns="http://www.w3.org/2000/svg" xmlns:xlink="http://www.w3.org/1999/xlink" x="0px" y="0px"
	 viewBox="0 0 80.2 92.4" style="enable-background:new 0 0 80.2 92.4;" xml:space="preserve">
<style type="text/css">
	.st0{fill:#1DE9B6;}
</style>
<path class="st0" d="M78.1,70.9c-5,4.7-12.3,7.6-20,7.6c-12.8,0-23.4-8.2-28.5-18.2h35.1l2.7-10H26.8c-0.1-2-0.2-2.9-0.2-4
	s0.1-2,0.2-4h42.7l2.7-10H29.6c5.1-11,16.1-18.2,28.9-18.2c6.3,0,12.3,1.9,17.2,5.1l3.4-12.8c-6.2-3.3-13.2-5.1-20.7-5.1
	c-19.9,0-36.8,13-42.5,31H3.8l-2.7,10H14c-0.1,2-0.1,2.9-0.1,4s0.1,2,0.1,4H3.8l-2.7,10h14.8c5.7,18,22.3,30.9,42.2,30.9
	c7.3,0,15-1.8,20-5V70.9z"/>
</svg>
