<svg xmlns="http://www.w3.org/2000/svg" xmlns:xlink="http://www.w3.org/1999/xlink" width="903.922" height="606.283" viewBox="0 0 903.922 606.283">
  <defs>
    <linearGradient id="linear-gradient" x1="0.5" y1="1" x2="0.5" gradientUnits="objectBoundingBox">
      <stop offset="0" stop-color="gray" stop-opacity="0.251"/>
      <stop offset="0.54" stop-color="gray" stop-opacity="0.122"/>
      <stop offset="1" stop-color="gray" stop-opacity="0.102"/>
    </linearGradient>
  </defs>
  <g id="undraw_booking_33fn" transform="translate(0 0.005)">
    <path id="Path_63" data-name="Path 63" d="M561.2,152.547c-57.929-1.934-113.1-19.928-165.793-39.61S290.535,71.448,233.983,61.021c-36.363-6.712-77.958-7.66-107.263,11.1-28.2,18.048-37.308,49.2-42.211,78.117-3.685,21.754-5.848,44.642,4.246,65.009,7.01,14.133,19.459,26.016,28.039,39.556,29.954,47.123,8.812,105.22-23.681,151.233C77.892,427.61,60.219,448.2,48.475,471.173s-17.16,49.3-6.834,72.769c10.19,23.226,34.448,40.673,60.781,52.949C155.81,621.774,218.77,628.91,280.16,632.948c135.9,8.939,272.535,5.071,408.8,1.195,50.423-1.441,101.078-2.89,150.684-10.4,27.551-4.161,55.991-10.789,75.995-26.732,25.388-20.259,31.685-54.567,14.669-79.974-28.536-42.615-107.439-53.172-127.379-98.931-10.983-25.168.3-53.211,16.255-76.553,34.224-50.09,91.593-94.015,94.613-151.264,2.083-39.3-25.5-78.7-68.144-97.3-44.7-19.5-106.678-17.046-139.66,15.235C672.031,141.466,612.355,154.25,561.2,152.547Z" transform="translate(-35.915 -56.63)" fill="#c9d4ff"/>
    <path id="Path_64" data-name="Path 64" d="M934.782,738.2a23.75,23.75,0,0,0-9.7-1.033c-3.984.432-3.422,6.5.578,6.211a28.65,28.65,0,0,0,5.9-1.087Z" transform="translate(-239.195 -212.708)" fill="#7f9aff"/>
    <path id="Path_65" data-name="Path 65" d="M938.885,738.61a23.709,23.709,0,0,1,2.373,9.471c.131,4.007-5.957,4.292-6.234.293a29,29,0,0,1,.262-6Z" transform="translate(-242.088 -213.068)" fill="#7f9aff"/>
    <path id="Path_66" data-name="Path 66" d="M946.5,720.492s-1.95-6.119-13.871-3.745c-5.394,1.071-5.248,8.808.154,9.625h.231C940.881,727.466,943.617,724.345,946.5,720.492Z" transform="translate(-240.639 -207.927)" fill="#7f9aff"/>
    <path id="Path_67" data-name="Path 67" d="M952.248,721.3s6.4.5,6.8,12.638c.185,5.464-7.375,7.12-9.4,2.05a.667.667,0,0,0-.085-.224C946.738,728.359,949.15,724.983,952.248,721.3Z" transform="translate(-245.148 -209.097)" fill="#7f9aff"/>
    <path id="Path_68" data-name="Path 68" d="M959.391,698.038a12.738,12.738,0,0,0-8.6-9.6c-8.068-2.543-12.33,9.525-4.446,12.592a25.185,25.185,0,0,0,10.2,1.48Z" transform="translate(-243.737 -201.478)" fill="#7f9aff"/>
    <path id="Path_69" data-name="Path 69" d="M971.347,672.056s-3.26-7.706-11.713-9.247c-8.962-1.641-11.675,11.821-2.82,13.971a29.554,29.554,0,0,0,12.068.1Z" transform="translate(-245.853 -195.648)" fill="#7f9aff"/>
    <path id="Path_70" data-name="Path 70" d="M979.167,646.539a19.128,19.128,0,0,0-12.33-8.477c-7.706-1.449-10.3,10.087-2.736,12.06a28.773,28.773,0,0,0,14.441-.2Z" transform="translate(-247.731 -189.975)" fill="#7f9aff"/>
    <path id="Path_71" data-name="Path 71" d="M986.667,621.353a19.89,19.89,0,0,0-10.789-8.577c-7.706-2.366-11.513,9.317-3.853,11.86A21.94,21.94,0,0,0,986,624.582Z" transform="translate(-249.629 -184.131)" fill="#7f9aff"/>
    <path id="Path_72" data-name="Path 72" d="M989.647,597.542s-3.083-7.228-9.363-11.051c-7-4.262-13.663,6.165-6.936,10.858,4.146,2.905,9.455,4.909,15.659,3.568Z" transform="translate(-250.251 -177.944)" fill="#7f9aff"/>
    <path id="Path_73" data-name="Path 73" d="M991,570.543s-3.4-7.3-9.918-10.789c-7.29-3.853-13.632,6.8-6.766,11.39,4.493,3,10.1,4.94,16.06,2.6Z" transform="translate(-250.437 -171.852)" fill="#7f9aff"/>
    <path id="Path_74" data-name="Path 74" d="M990.637,545.766a47.272,47.272,0,0,0-9.247-10.519c-5.1-4.169-11.559,3.337-6.728,7.791,4.462,4.092,10.018,7.529,15.759,7.251Z" transform="translate(-250.802 -166.14)" fill="#7f9aff"/>
    <path id="Path_75" data-name="Path 75" d="M988.091,521.127a69.268,69.268,0,0,0-10.45-13.5c-3.992-3.853-9.895,2.019-6.165,6.08,4.308,4.624,10.118,9.417,17.1,11.513Z" transform="translate(-250.19 -159.795)" fill="#7f9aff"/>
    <path id="Path_76" data-name="Path 76" d="M983.835,494.139a61.763,61.763,0,0,0-8.346-10.334c-4.023-3.938-10.088,1.988-6.227,6.08,4.1,4.354,9.4,8.431,15.62,9.818Z" transform="translate(-249.671 -154.322)" fill="#7f9aff"/>
    <path id="Path_77" data-name="Path 77" d="M980.05,468.374a98.484,98.484,0,0,0-8.022-9.532c-3.221-3.321-8.369,1.348-5.333,4.847,3.568,4.115,8.145,7.76,13.409,8.346Z" transform="translate(-249.153 -148.632)" fill="#7f9aff"/>
    <path id="Path_78" data-name="Path 78" d="M975.9,443.224a100.434,100.434,0,0,0-7.706-12.677c-2.412-3.3-7.436.231-5.163,3.622,2.975,4.446,7.1,8.847,12.53,10.966Z" transform="translate(-248.392 -142.1)" fill="#7f9aff"/>
    <path id="Path_79" data-name="Path 79" d="M973.089,412.783s-1.9-3.229-4.624-6.982c-2.512-3.46-7.814.116-5.487,3.7,2.62,4.015,5.9,7.436,9.725,8.115Z" transform="translate(-248.38 -136.404)" fill="#7f9aff"/>
    <path id="Path_80" data-name="Path 80" d="M972.324,389.8l-2.412-12.06a2.536,2.536,0,0,0-5.009.771c.863,6.442,3.083,12.923,7.914,17.177Z" transform="translate(-248.949 -129.821)" fill="#7f9aff"/>
    <path id="Path_81" data-name="Path 81" d="M975.047,349.089h0a2.366,2.366,0,0,0-4.516,1.295,61.054,61.054,0,0,0,2.435,9.864Z" transform="translate(-250.238 -123.385)" fill="#7f9aff"/>
    <path id="Path_82" data-name="Path 82" d="M964.481,700.5a12.738,12.738,0,0,1,12.607,2.712c6.165,5.757-2.173,15.412-8.746,10.1a25.322,25.322,0,0,1-6.342-8.13Z" transform="translate(-248.288 -204.178)" fill="#7f9aff"/>
    <path id="Path_83" data-name="Path 83" d="M977.275,673.807s8.107-1.957,14.38,3.915c6.651,6.227-2.543,16.422-9.548,10.588a29.507,29.507,0,0,1-7.267-9.64Z" transform="translate(-251.233 -198.131)" fill="#7f9aff"/>
    <path id="Path_84" data-name="Path 84" d="M985.5,649.8a19.135,19.135,0,0,1,14.642-3.252c7.706,1.541,5.787,13.2-1.973,12.207a28.829,28.829,0,0,1-13.316-5.587Z" transform="translate(-253.53 -191.875)" fill="#7f9aff"/>
    <path id="Path_85" data-name="Path 85" d="M992.584,622.956a19.868,19.868,0,0,1,13.193-3.938c8.061.7,7.2,12.946-.871,12.438a21.894,21.894,0,0,1-12.946-5.279Z" transform="translate(-255.16 -185.626)" fill="#7f9aff"/>
    <path id="Path_86" data-name="Path 86" d="M995.2,598.865s4.277-6.6,11.1-9.294c7.575-3,12.438,8.353,5.078,11.844-4.624,2.181-10.2,3.283-16.114.886Z" transform="translate(-255.904 -178.766)" fill="#7f9aff"/>
    <path id="Path_87" data-name="Path 87" d="M995.55,570.663s4.323-6.781,11.236-9.371c7.706-2.89,12.63,8.515,5.225,12.176-4.847,2.389-10.665,3.576-16.26.478Z" transform="translate(-255.984 -172.287)" fill="#7f9aff"/>
    <path id="Path_88" data-name="Path 88" d="M993.67,544.761a47.258,47.258,0,0,1,6.781-12.253c4.084-5.171,12.029.771,8.238,6.165-3.483,4.955-8.138,9.494-13.871,10.457Z" transform="translate(-255.553 -165.335)" fill="#7f9aff"/>
    <path id="Path_89" data-name="Path 89" d="M992.9,520.1a68.994,68.994,0,0,1,6.257-15.921c2.767-4.793,10.064-.825,7.583,4.123-2.836,5.664-7.09,11.867-13.208,15.836Z" transform="translate(-255.376 -158.795)" fill="#7f9aff"/>
    <path id="Path_90" data-name="Path 90" d="M987.1,492.108a61.815,61.815,0,0,1,6.365-12.153c3.175-4.624,10.211-.092,7.306,4.685-3.16,5.209-7.614,10.45-13.586,13.1Z" transform="translate(-254.046 -153.293)" fill="#7f9aff"/>
    <path id="Path_91" data-name="Path 91" d="M982.48,467.124a99.041,99.041,0,0,1,3.337-12c1.541-4.369,8.176-2.258,6.866,2.189-1.541,5.225-4.184,10.442-8.723,13.162Z" transform="translate(-252.986 -147.49)" fill="#7f9aff"/>
    <path id="Path_92" data-name="Path 92" d="M979.27,442.148a100.066,100.066,0,0,1,4.624-14.11c1.6-3.761,7.305-1.472,5.857,2.35-1.88,5.009-4.9,10.234-9.694,13.532Z" transform="translate(-252.249 -141.387)" fill="#7f9aff"/>
    <path id="Path_93" data-name="Path 93" d="M974.46,414.353s.724-3.676,2.042-8.122c1.218-4.1,7.413-2.489,6.4,1.665-1.125,4.624-3.082,8.978-6.473,10.889Z" transform="translate(-251.146 -136.278)" fill="#7f9aff"/>
    <path id="Path_94" data-name="Path 94" d="M975.174,389l4.192-11.559a2.537,2.537,0,0,1,4.832,1.541c-1.811,6.242-4.955,12.33-10.388,15.8Z" transform="translate(-250.997 -129.831)" fill="#7f9aff"/>
    <path id="Path_95" data-name="Path 95" d="M980.289,350.538s.655-.524,1.657-1.349a2.078,2.078,0,0,1,2.782,3.082,39.3,39.3,0,0,1-11.4,7.228Z" transform="translate(-250.887 -123.624)" fill="#7f9aff"/>
    <path id="Path_96" data-name="Path 96" d="M981.745,337.294a151.772,151.772,0,0,1,8.361-14.888,1.541,1.541,0,0,0-2.5-1.765c-2.466,3.375-4.886,8.315-6.72,15.574Z" transform="translate(-252.621 -117.077)" fill="#7f9aff"/>
    <path id="Path_97" data-name="Path 97" d="M975.188,402.981l.894-.092c-3.853-35.918-2.227-58.066,4.508-62.358l-.485-.771C972.969,344.33,971.273,366.184,975.188,402.981Z" transform="translate(-250.842 -121.577)" fill="#444053"/>
    <path id="Path_98" data-name="Path 98" d="M988.974,505.937l1.333-.2c-.5-3.321-1.079-6.7-1.726-10.018-5.61-29.152-9.972-56.1-12.153-76.568l-.979-.771c2.188,20.506,6.165,48.387,11.814,77.578C987.9,499.256,988.473,502.624,988.974,505.937Z" transform="translate(-251.373 -139.612)" fill="#444053"/>
    <path id="Path_99" data-name="Path 99" d="M911.676,712.688c.2-.162,20.73-15.867,38.754-45.99a194.194,194.194,0,0,0,22.81-56.864c5.695-25.053,5.856-54.228,1.749-81.554l-1.2.963c9.247,61.326-8.392,108.942-24.852,136.468C931.088,695.557,910.8,711.1,910.59,711.255Z" transform="translate(-236.495 -164.821)" fill="#444053"/>
    <ellipse id="Ellipse_31" data-name="Ellipse 31" cx="51.284" cy="9.864" rx="51.284" ry="9.864" transform="translate(98.23 528)" fill="#7f9aff"/>
    <ellipse id="Ellipse_32" data-name="Ellipse 32" cx="5.972" cy="7.814" rx="5.972" ry="7.814" transform="translate(142.679 525.858)" fill="#3f3d56"/>
    <ellipse id="Ellipse_33" data-name="Ellipse 33" cx="5.972" cy="7.814" rx="5.972" ry="7.814" transform="translate(142.679 516.303)" fill="#3f3d56"/>
    <ellipse id="Ellipse_34" data-name="Ellipse 34" cx="5.972" cy="7.814" rx="5.972" ry="7.814" transform="translate(142.679 506.755)" fill="#3f3d56"/>
    <ellipse id="Ellipse_35" data-name="Ellipse 35" cx="5.972" cy="7.814" rx="5.972" ry="7.814" transform="translate(142.679 497.199)" fill="#3f3d56"/>
    <ellipse id="Ellipse_36" data-name="Ellipse 36" cx="5.972" cy="7.814" rx="5.972" ry="7.814" transform="translate(142.679 487.643)" fill="#3f3d56"/>
    <ellipse id="Ellipse_37" data-name="Ellipse 37" cx="5.972" cy="7.814" rx="5.972" ry="7.814" transform="translate(142.679 478.095)" fill="#3f3d56"/>
    <ellipse id="Ellipse_38" data-name="Ellipse 38" cx="5.972" cy="7.814" rx="5.972" ry="7.814" transform="translate(142.679 468.54)" fill="#3f3d56"/>
    <path id="Path_100" data-name="Path 100" d="M242.522,576.154a28.144,28.144,0,0,0,2.227-3.275l-15.69-2.574,16.954.123a28.62,28.62,0,0,0,.547-22.656L223.8,559.578l20.992-15.412a28.605,28.605,0,1,0-47.239,32,28.893,28.893,0,0,0-3.26,5.217l20.367,10.581-21.7-7.29a28.613,28.613,0,0,0,4.624,26.856,28.605,28.605,0,1,0,44.958,0,28.582,28.582,0,0,0,0-35.363Z" transform="translate(-71.522 -165.179)" fill="#7f9aff"/>
    <path id="Path_101" data-name="Path 101" d="M191.458,612.764a28.513,28.513,0,0,0,6.119,17.678,28.605,28.605,0,1,0,44.958,0C246.372,625.58,191.458,609.551,191.458,612.764Z" transform="translate(-71.535 -184.104)" fill="#7f9aff" opacity="0.1"/>
    <path id="Path_102" data-name="Path 102" d="M267.81,317.87V658.258a11.883,11.883,0,0,0,11.883,11.883H768.162a11.883,11.883,0,0,0,11.883-11.883V317.87Z" transform="translate(-89.051 -116.556)" fill="#fff"/>
    <rect id="Rectangle_61" data-name="Rectangle 61" width="122.451" height="71.875" rx="8.65" transform="translate(219.294 231.784)" opacity="0.1"/>
    <rect id="Rectangle_62" data-name="Rectangle 62" width="122.451" height="71.875" rx="8.65" transform="translate(373.655 231.784)" opacity="0.1"/>
    <rect id="Rectangle_63" data-name="Rectangle 63" width="119.006" height="69.848" rx="8.65" transform="translate(221.012 232.794)" fill="#0031e6"/>
    <rect id="Rectangle_64" data-name="Rectangle 64" width="119.006" height="69.848" rx="8.65" transform="translate(648.741 302.642) rotate(180)" fill="#7f9aff" opacity="0.1"/>
    <rect id="Rectangle_65" data-name="Rectangle 65" width="119.006" height="69.848" rx="8.65" transform="translate(494.38 302.642) rotate(180)" fill="#0031e6"/>
    <rect id="Rectangle_66" data-name="Rectangle 66" width="119.006" height="69.848" rx="8.65" transform="translate(221.012 333.69)" fill="#7f9aff" opacity="0.1"/>
    <rect id="Rectangle_67" data-name="Rectangle 67" width="119.006" height="69.848" rx="8.65" transform="translate(648.741 403.539) rotate(180)" fill="#7f9aff" opacity="0.1"/>
    <rect id="Rectangle_68" data-name="Rectangle 68" width="119.006" height="69.848" rx="8.65" transform="translate(494.38 403.539) rotate(180)" fill="#7f9aff" opacity="0.1"/>
    <rect id="Rectangle_69" data-name="Rectangle 69" width="119.006" height="69.848" rx="8.65" transform="translate(221.012 434.587)" fill="#7f9aff" opacity="0.1"/>
    <rect id="Rectangle_70" data-name="Rectangle 70" width="119.006" height="69.848" rx="8.65" transform="translate(648.741 504.443) rotate(180)" fill="#7f9aff" opacity="0.1"/>
    <rect id="Rectangle_71" data-name="Rectangle 71" width="119.006" height="69.848" rx="8.65" transform="translate(494.38 504.443) rotate(180)" fill="#7f9aff" opacity="0.1"/>
    <path id="Path_103" data-name="Path 103" d="M267.81,236.321v61.842H780.045V236.321a11.883,11.883,0,0,0-11.883-11.891H279.693a11.883,11.883,0,0,0-11.883,11.891Zm126.766,18.294a9.486,9.486,0,1,1,9.486-9.486,9.486,9.486,0,0,1-9.486,9.486Zm258.7,0a9.505,9.505,0,1,0-.015,0Z" transform="translate(-89.051 -95.122)" fill="#0031e6"/>
    <path id="Path_104" data-name="Path 104" d="M428.97,236.74a11.212,11.212,0,1,0,11.2,11.21,11.212,11.212,0,0,0-11.2-11.21Zm0,20.7a9.486,9.486,0,1,1,9.486-9.486,9.486,9.486,0,0,1-9.486,9.486Z" transform="translate(-123.445 -97.946)" opacity="0.1"/>
    <path id="Path_105" data-name="Path 105" d="M764.662,236.74a11.212,11.212,0,1,0,11.212,11.212,11.212,11.212,0,0,0-11.212-11.212Zm0,20.7a9.486,9.486,0,1,1,9.486-9.486,9.486,9.486,0,0,1-9.486,9.486Z" transform="translate(-200.45 -97.946)" opacity="0.1"/>
    <circle id="Ellipse_39" data-name="Ellipse 39" cx="11.767" cy="11.767" r="11.767" transform="translate(784.354 311.843)" fill="#0031e6" opacity="0.1"/>
    <circle id="Ellipse_40" data-name="Ellipse 40" cx="19.728" cy="19.728" r="19.728" transform="translate(818.492 251.404)" fill="#0031e6" opacity="0.1"/>
    <circle id="Ellipse_41" data-name="Ellipse 41" cx="19.728" cy="19.728" r="19.728" transform="translate(792.376 347.13)" fill="#0031e6" opacity="0.1"/>
    <circle id="Ellipse_42" data-name="Ellipse 42" cx="27.935" cy="27.935" r="27.935" transform="translate(0 238.357)" fill="#0031e6" opacity="0.1"/>
    <path id="Path_106" data-name="Path 106" d="M920.408,705.682a24.655,24.655,0,0,0-5.718-3.214,1.18,1.18,0,0,0-.5-.131A87.98,87.98,0,0,1,902.4,692.18c.771-.617,1.48-1.218,2.235-1.811-4.624-2.2-7.19-7.251-9.687-11.806a116.468,116.468,0,0,0-25.692-32.011c-.254-.979-1.742-.771-2.535-1.4a2.035,2.035,0,0,1-.563-1.965c.123-.709.447-1.364.624-2.058a13.9,13.9,0,0,0-.131-5.009c-.185-1.672-.108-3.537,1-4.786.354-.408.809-.724,1.156-1.14a4.346,4.346,0,0,0,.771-3.46,12.281,12.281,0,0,0-.771-3.506q5.664-15.412,11.32-30.878c2.643-7.2,5.31-14.549,5.579-22.224.216-6.165-1.372-12.569-5.1-17.277.678-.162,1.356-.331,2.027-.524-4.408-5.841-4.886-13.578-5-20.938q-.093-5.5-.378-11.012c1.279.563,2.574,1.063,3.9,1.495l1.233.378a42.5,42.5,0,0,0,6.111,1.31c.909.131,1.834.231,2.751.293h0q-1.988-4.978-3.969-9.972a13.625,13.625,0,0,1-1.233-4.678h0v-.308a2.691,2.691,0,0,1,.039-.555,6.1,6.1,0,0,1,.3-1.295,5.856,5.856,0,0,1,.239-.609,10.8,10.8,0,0,1,.986-1.734c.277-.424.586-.832.894-1.248a17.038,17.038,0,0,0,2.767-4.477,8.48,8.48,0,0,0,.424-2.551,12.564,12.564,0,0,0-.231-2.62c-.108-.57-.247-1.148-.4-1.7h0c-.1-.347-.208-.693-.316-1.033l-.093-.277c-.085-.262-.169-.516-.262-.771l-.092-.262c-.1-.277-.2-.547-.308-.825l-.062-.162c-1.472-3.784-3.429-7.39-4.624-11.282a29.75,29.75,0,0,1-.771-3.152c-.054-.27-.092-.547-.139-.817s-.07-.462-.1-.693-.069-.539-.1-.809l-.069-.771c0-.247-.039-.493-.054-.771,0-.47-.046-.94-.054-1.41v-2.142c0-.354.054-.709.085-1.056a1.566,1.566,0,0,1,.054-.5q.077-.771.208-1.541h0c.077-.455.162-.917.254-1.379a18.4,18.4,0,0,0,.432-3.853,3.83,3.83,0,0,0-.054-.771c-.054-.27-.062-.416-.1-.616a1.584,1.584,0,0,1,0-.185,2.04,2.04,0,0,0-.1-.416.777.777,0,0,0-.062-.193c-.023-.062-.085-.27-.131-.4s-.038-.116-.062-.177-.108-.277-.17-.409l-.054-.139c-.077-.17-.162-.331-.247-.493h0a11.353,11.353,0,0,0-1.033-1.6h0c-2.535-3.329-6.751-5.864-9.07-9.533a21.221,21.221,0,0,1-2.6-7.706c-.116-.616-.216-1.233-.324-1.842s-.2-1.21-.308-1.811c-.069-.37-.139-.771-.216-1.11l-.046-.239c-.062-.293-.123-.593-.193-.886l-.046-.208c-.069-.308-.139-.617-.216-.925l-.046-.162c-.077-.324-.162-.647-.247-.971a.63.63,0,0,1,0-.116c-.093-.339-.193-.678-.293-1.017V426.6c-.108-.354-.216-.7-.331-1.048h0c-.116-.354-.239-.717-.37-1.071h0c-.139-.362-.27-.724-.416-1.079h0a28.508,28.508,0,0,0-3.9-6.936c-3.529-4.531-8.985-7.783-14.642-7.567a29,29,0,0,0-8.808,2.235l-7.421,2.736,2.073-.956a17.733,17.733,0,0,0-6.311,1.349,6.13,6.13,0,0,0-3.66,5.017c-.039,1.271.462,2.535.3,3.8-.27,2.088-2.189,3.506-3.183,5.356a6.889,6.889,0,0,0-.771,3.622v.493a.661.661,0,0,0,0,.123v.247c-3.082-1.341-6.165-2.736-9.247-4.231-5.094-2.5-10.249-5.448-13.424-10.2-1.017-1.541-1.8-3.206-2.813-4.732a37.464,37.464,0,0,0-3.853-4.624L783.208,398.9c-.724,1.364.208,2.975.94,4.331a18.59,18.59,0,0,1,1.749,4.516,2.143,2.143,0,0,1-.046,1.58,3.083,3.083,0,0,1-1.295.917,4.624,4.624,0,0,0-1.95,5.294,5.857,5.857,0,0,0,4.369,3.807,7.935,7.935,0,0,1,1.95.478c1.141.563,1.68,1.873,2.5,2.851,1.487,1.788,3.853,2.458,6.111,3.044,3.5,4.038,7.136,7.907,10.634,11.945,5.294,6.111,10.712,12.33,17.616,16.46.717.432,1.449.832,2.189,1.2a1.208,1.208,0,0,1-.039.37,4.177,4.177,0,0,0,.331,2.7c.617.979,1.888,1.271,3.021,1.472l5.225.932a17.868,17.868,0,0,1-.254,2.019c-.069.408-.154.809-.231,1.217h0l-.092.524v.077a1.527,1.527,0,0,1-.054.424c-.054.146,0,.1,0,.146v1.025c.177,2.05,1.541,3.745,2.905,5.31l.732.886a12.327,12.327,0,0,0-2.381,4.994,16.949,16.949,0,0,0-.339,3.476,6.032,6.032,0,0,0-1.541,2.4,10.987,10.987,0,0,0-.4,3.892v1.541a12.949,12.949,0,0,0,.894,5.394c.069.139.147.262.216.393-1.156,2.266-3.082,4.03-4.462,6.165A13.378,13.378,0,0,0,832.728,516c1.056,1.218,2.412,2.389,2.535,4.007a15.021,15.021,0,0,1-.216,2.189c-.123,1.742.678,3.391,1.11,5.078a5.247,5.247,0,0,1-.424,4.208,6.164,6.164,0,0,0-1.056,4.038c.393,2.181-.509,4.362-.663,6.573-.07.948,0,1.911-.085,2.859a16.116,16.116,0,0,1-.562,2.682,1.1,1.1,0,0,1-.077.293c-1.9.84-3.791,1.711-5.61,2.72a4.924,4.924,0,0,0-2.312,2.127,5.457,5.457,0,0,0-.123,2.928l1.641,11.421L826.6,567q.193,2.805.4,5.633a7.6,7.6,0,0,0,1.079,4.076,10.616,10.616,0,0,1,1.164,1.487c.647,1.31-.123,2.836-.694,4.177s-.771,3.244.485,3.969a10.243,10.243,0,0,0,2.1,1.125c-1.541,6.427-.123,13.162,1.31,19.612q1.641,7.4,3.291,14.78a35.864,35.864,0,0,1,.724,6.35v.925a35.579,35.579,0,0,0,1.541,8.646c1.711,5.764.07,12.684.609,18.965a56.248,56.248,0,0,0,1.8,8.931c3.722,14.765,7.043,29.237,8.323,44.418a11.158,11.158,0,0,0,5.333,3.722c-.154,1.865.054,4,0,5.086a8.787,8.787,0,0,1-.416,2.651,6.37,6.37,0,0,1-4.03,3.429c-.539.185-1.087.331-1.641.462l.616-.524a13.763,13.763,0,0,0-10.257,1.8,4.061,4.061,0,0,0-2.027,2.389,3.853,3.853,0,0,0,.709,2.766,12.614,12.614,0,0,0,7.128,5.063,37.393,37.393,0,0,0,8.785,1.225l5.441.316a1.5,1.5,0,0,0,.354,1.934,3.806,3.806,0,0,0,2,.724,25.425,25.425,0,0,0,6.712.1,2.627,2.627,0,0,0,1.541-.555.994.994,0,0,0,0-1.472,1.626,1.626,0,0,0,1.48-1.079,4.378,4.378,0,0,0,.2-1.95c-.146-2.535-.37-6.219-1.688-8.477a2.15,2.15,0,0,0-2.381-1.048,92.47,92.47,0,0,1-1.541-13.671,33.4,33.4,0,0,0,3.961-1.788c-3.784-6.111-3.853-13.871-2.7-20.976a63.546,63.546,0,0,0,1.01-6.789c.254-4.547-.432-9.694-2.951-13.455A48.143,48.143,0,0,1,876.4,680.868c5.325,6.935,8.569,15.335,15.1,21.115q1.287-1.256,2.6-2.5,2.065,3.5,3.907,7.144a27.177,27.177,0,0,1,2.266,5.633,26.056,26.056,0,0,1,.208,9.086q-.27,2.4-.655,4.786a13.024,13.024,0,0,1-.47,2,1.388,1.388,0,0,0-.146-.6c-.409-.717-1.541-.393-2.158.1a9.526,9.526,0,0,0-2.659,3.083,3.321,3.321,0,0,0-.478,1.965,2.9,2.9,0,0,0,1.541,1.927c2.859,1.672,6.45.462,9.517-.771a11.171,11.171,0,0,0,2.4-1.21c1.541-1.11,2.381-2.936,3.915-4.015a22.669,22.669,0,0,0,2.366-1.495c1.426-1.3,1.541-3.5,2.581-5.148,1.726-2.844,5.587-3.576,7.1-6.589C925.086,712.054,923.044,707.855,920.408,705.682Z" transform="translate(-207.089 -135.143)" fill="url(#linear-gradient)"/>
    <path id="Path_107" data-name="Path 107" d="M871.543,812.054a8.592,8.592,0,0,1-.424,2.62,6.334,6.334,0,0,1-4.023,3.383c-1.711.593-3.529.771-5.271,1.287a4.623,4.623,0,0,0-2.058,1.063c-1.541,1.541-.616,4.315,1.187,5.464s4.1,1.11,6.242.963a82.21,82.21,0,0,0,13.5-1.919c1.6-.378,3.475-1.117,3.73-2.743a4.5,4.5,0,0,0-.123-1.541,91.1,91.1,0,0,1-1.734-16.746c0-.37-8.939-.609-9.771-.069C870.934,805.041,871.643,810.158,871.543,812.054Z" transform="translate(-224.658 -227.953)" fill="#edbbbf"/>
    <path id="Path_108" data-name="Path 108" d="M926.491,786.788q2.219,3.676,4.169,7.5a26.546,26.546,0,0,1,2.266,5.556,25.541,25.541,0,0,1,.208,8.962q-.27,2.366-.663,4.724c-.254,1.541-.663,3.291-1.981,4.177a4.562,4.562,0,0,0,3.93.347,11.322,11.322,0,0,0,3.46-2.119c6.6-5.448,11.559-13.362,11.806-21.924a3.477,3.477,0,0,0-.362-1.942,3.851,3.851,0,0,0-1.156-1.033,88.8,88.8,0,0,1-13.663-11.474,1.672,1.672,0,0,0-1-.64,1.733,1.733,0,0,0-.894.254c-2.535,1.272-6.774,3.083-7.829,5.972a4.038,4.038,0,0,1,1.711,1.641Z" transform="translate(-239.75 -222.314)" fill="#edbbbf"/>
    <path id="Path_109" data-name="Path 109" d="M879.049,825.225c-5.548,2.312-11.559,3.144-17.562,3.938a2.4,2.4,0,0,1-2.1-.385,1.6,1.6,0,0,1-.139-1.8,4.7,4.7,0,0,1,1.287-1.418l3.984-3.337a13.872,13.872,0,0,0-10.126,1.742,4.03,4.03,0,0,0-2.019,2.312,3.76,3.76,0,0,0,.709,2.736A12.59,12.59,0,0,0,860.2,834a38.068,38.068,0,0,0,8.777,1.21l5.394.308a1.457,1.457,0,0,0,.362,1.911,3.855,3.855,0,0,0,2,.732,25.691,25.691,0,0,0,6.7.092,2.566,2.566,0,0,0,1.541-.547.971.971,0,0,0,0-1.449,1.626,1.626,0,0,0,1.48-1.071,4.462,4.462,0,0,0,.2-1.919c-.146-2.5-.37-6.165-1.688-8.346S880.914,824.455,879.049,825.225Z" transform="translate(-223.133 -232.177)" fill="#3f3d56"/>
    <path id="Path_110" data-name="Path 110" d="M953.455,796.635a24.791,24.791,0,0,0-5.718-3.167.678.678,0,0,0-1.033.262,58.667,58.667,0,0,0-8.423,16.237c-1.1,3.314-1.973,6.843-4.207,9.525-.293.354-.771.717-1.171.509-.578-.293-.223-1.225-.547-1.788-.4-.709-1.495-.385-2.15.1a9.245,9.245,0,0,0-2.651,3.082,3.083,3.083,0,0,0-.478,1.934,2.851,2.851,0,0,0,1.5,1.9c2.859,1.657,6.45.462,9.509-.771a10.88,10.88,0,0,0,2.4-1.195c1.541-1.086,2.381-2.9,3.915-3.953a22.537,22.537,0,0,0,2.366-1.48c1.418-1.287,1.541-3.452,2.574-5.086,1.726-2.8,5.587-3.522,7.1-6.5C958.125,802.924,956.09,798.778,953.455,796.635Z" transform="translate(-240.274 -225.619)" fill="#3f3d56"/>
    <path id="Path_111" data-name="Path 111" d="M890.4,596.7c6.057,4.547,8.6,12.63,8.33,20.2s-2.928,14.827-5.564,21.924q-5.664,15.235-11.313,30.462a12.561,12.561,0,0,1,.771,3.468,4.261,4.261,0,0,1-.771,3.406c-.354.408-.771.724-1.156,1.125-1.11,1.233-1.179,3.083-1,4.724a13.681,13.681,0,0,1,.131,4.94c-.177.686-.5,1.333-.624,2.027a2.011,2.011,0,0,0,.563,1.942c.771.616,2.312.416,2.535,1.387a115.175,115.175,0,0,1,25.661,31.6c2.5,4.493,5.017,9.471,9.679,11.644a169,169,0,0,0-13.047,11.474c-6.512-5.7-9.756-14-15.073-20.807a47.778,47.778,0,0,0-12.006-10.735c2.52,3.707,3.206,8.793,2.951,13.27a61.582,61.582,0,0,1-1.01,6.7c-1.194,7.013-1.086,14.642,2.7,20.7-4.038,2.1-8.677,3.653-13.185,3.028a11.219,11.219,0,0,1-7.182-4.1c-1.279-14.981-4.624-29.283-8.315-43.825a53.855,53.855,0,0,1-1.8-8.87c-.539-6.165,1.1-13.023-.616-18.711a34.882,34.882,0,0,1-1.541-8.523v-.917a34.933,34.933,0,0,0-.724-6.257l-3.283-14.58c-1.433-6.373-2.867-13.016-1.318-19.358a10.283,10.283,0,0,1-2.1-1.1c-1.256-.717-1.056-2.589-.486-3.915s1.333-2.828.694-4.123a10.061,10.061,0,0,0-1.164-1.472,7.4,7.4,0,0,1-1.079-4.015l-.4-5.564a10.888,10.888,0,0,1,5.487,4.8c-3.036-4.7-1.541-11.405.7-16.537a7.536,7.536,0,0,1,7.074-5.6C865.275,594.385,880.364,589.153,890.4,596.7Z" transform="translate(-220.225 -179.611)" fill="#3f3d56"/>
    <path id="Path_112" data-name="Path 112" d="M895.79,638.93s-6.072,4.053-6.072,7.09-1.541,30.362-1.541,30.362v19.265s1.009,10.126,0,12.653,0,14.172,0,15.69,1.541-15.69,1.541-15.69V690.053l1.541-41.505Z" transform="translate(-231.251 -190.203)" opacity="0.1"/>
    <path id="Path_113" data-name="Path 113" d="M837.77,444.889l-3.537-1.379c-7.228-2.9-14.464-5.8-21.462-9.2-5.086-2.474-10.242-5.394-13.409-10.056-1.017-1.541-1.8-3.16-2.813-4.678a37.312,37.312,0,0,0-3.853-4.57l-9.448-10.1c-.724,1.349.2,2.936.94,4.269a18.5,18.5,0,0,1,1.749,4.462,2.065,2.065,0,0,1-.054,1.541,3,3,0,0,1-1.287.909,4.523,4.523,0,0,0-1.95,5.217,5.818,5.818,0,0,0,4.362,3.761,8.286,8.286,0,0,1,1.95.47c1.141.563,1.68,1.849,2.5,2.813,1.487,1.765,3.853,2.435,6.1,3.005,3.5,3.984,7.128,7.8,10.627,11.783,5.286,6.026,10.7,12.16,17.6,16.244a25.777,25.777,0,0,0,7.945,3.19,128.739,128.739,0,0,1,4.038-17.686Z" transform="translate(-207.099 -136.522)" fill="#a1616a"/>
    <path id="Path_114" data-name="Path 114" d="M837.77,444.889l-3.537-1.379c-7.228-2.9-14.464-5.8-21.462-9.2-5.086-2.474-10.242-5.394-13.409-10.056-1.017-1.541-1.8-3.16-2.813-4.678a37.312,37.312,0,0,0-3.853-4.57l-9.448-10.1c-.724,1.349.2,2.936.94,4.269a18.5,18.5,0,0,1,1.749,4.462,2.065,2.065,0,0,1-.054,1.541,3,3,0,0,1-1.287.909,4.523,4.523,0,0,0-1.95,5.217,5.818,5.818,0,0,0,4.362,3.761,8.286,8.286,0,0,1,1.95.47c1.141.563,1.68,1.849,2.5,2.813,1.487,1.765,3.853,2.435,6.1,3.005,3.5,3.984,7.128,7.8,10.627,11.783,5.286,6.026,10.7,12.16,17.6,16.244a25.777,25.777,0,0,0,7.945,3.19,128.739,128.739,0,0,1,4.038-17.686Z" transform="translate(-207.099 -136.522)" fill="#edbbbf"/>
    <path id="Path_115" data-name="Path 115" d="M844.815,476.608c-1.133-.2-2.4-.478-3.021-1.449a4.061,4.061,0,0,1-.331-2.659,74.563,74.563,0,0,1,3.853-17.031c1.719,3.183,5.1,5.04,8.307,6.712a61.663,61.663,0,0,0,8.924,4.069c-.771-.247-2.659,11.605-3.722,12.33-1.341.94-4.577-.331-6.065-.586Z" transform="translate(-220.618 -148.119)" fill="#f50057"/>
    <circle id="Ellipse_43" data-name="Ellipse 43" cx="16.198" cy="16.198" r="16.198" transform="translate(616.206 292.593)" fill="#edbbbf"/>
    <path id="Path_116" data-name="Path 116" d="M852.22,471.4s10.627,9.109,6.072,15.181-7.09,10.126-1.017,10.634,26.317-10.126,26.317-10.126-18.726-15.181-15.69-24.29S852.22,471.4,852.22,471.4Z" transform="translate(-223.106 -149.205)" fill="#fbbebe"/>
    <path id="Path_117" data-name="Path 117" d="M860.445,489.849a12.569,12.569,0,0,0-9.3,9.355c-1.194,5.456,1.341,11.559-1.048,16.584-1.125,2.389-3.214,4.177-4.624,6.419a13.1,13.1,0,0,0,1.218,15.112c1.056,1.2,2.412,2.366,2.535,3.953a14.523,14.523,0,0,1-.216,2.158c-.123,1.718.678,3.352,1.11,5.017a5.1,5.1,0,0,1-.424,4.146,6,6,0,0,0-1.048,3.984c.385,2.158-.516,4.308-.67,6.489-.069.94,0,1.88-.085,2.82a16.424,16.424,0,0,1-.555,2.643l-1.356,5a55.589,55.589,0,0,0,23.119,4.13c7.12-.139,14.141-1.611,21.107-3.082,2.119-.447,4.238-.894,6.327-1.472-4.408-5.764-4.878-13.4-5-20.652a308.3,308.3,0,0,0-2.7-36.142c2.135-4.03,3.082-8.523,3.961-13a22,22,0,0,0,.493-5.495c-.216-3.853-1.988-7.513-3.722-11-1.588-3.19-3.306-6.55-6.843-7.93a5.441,5.441,0,0,0-5.263.578c-2.674,2.019-1.88,5.5-2.566,8.477-.9,3.853-4.454,6.62-8.238,7.706a26.777,26.777,0,0,1-8.662.809,1.541,1.541,0,0,1-1.094-2.528C858.133,492.553,859.381,491.159,860.445,489.849Z" transform="translate(-221.136 -153.392)" fill="#f50057"/>
    <path id="Path_118" data-name="Path 118" d="M871.641,574.49c-6,4.9-12.06,9.848-18.98,13.316-4.061,2.034-8.377,3.537-12.33,5.726a4.925,4.925,0,0,0-2.312,2.1,5.178,5.178,0,0,0-.123,2.89l1.757,12.114c.485,3.283,3.637,5.394,6.165,7.49a4.435,4.435,0,0,1,.162-2.936,9.8,9.8,0,0,1,.593-.886,8.313,8.313,0,0,0,.855-5.695,31.646,31.646,0,0,1-.671-5.841,1.911,1.911,0,0,1,.817-1.7c8.608-4.138,17.878-7.313,26.578-11.243a28.159,28.159,0,0,0,6.45-3.66,9.924,9.924,0,0,0,3.745-6.219,1.216,1.216,0,0,0-.154-.948,1.286,1.286,0,0,0-.655-.385C879.64,577.195,875.525,575.893,871.641,574.49Z" transform="translate(-219.786 -175.421)" fill="#edbbbf"/>
    <path id="Path_119" data-name="Path 119" d="M857.874,508.518c-2.975.5-6.1,2.042-7.113,4.893a10.875,10.875,0,0,0-.4,3.853,12.532,12.532,0,0,0,.9,5.34,15.087,15.087,0,0,0,1.8,2.62c7.12,9.124,10.7,20.583,17.632,29.854.616.817,1.742,1.88,1.395,2.843a6.881,6.881,0,0,0-.331.771,1.542,1.542,0,0,0,.509,1.349,3.291,3.291,0,0,1,.84,1.225c.131.486-.193,1.117-.694,1.079.832,2.574,3.383,4.077,5.8,5.294,4.023,2.027,8.477,3.622,12.954,3.183.84-3.368,2.011-7.174,1.541-10.6a27.529,27.529,0,0,0-2.581-7.521l-3.013-6.581c-2.566-5.618-5.155-11.274-8.731-16.306a24.655,24.655,0,0,1-3.229-5.2c-.917-2.381-3.437-4.053-4.963-6.1-2.266-3.082-4.624-6.165-7.66-8.392C861.319,509.181,859.362,508.271,857.874,508.518Z" transform="translate(-222.672 -160.278)" opacity="0.1"/>
    <path id="Path_120" data-name="Path 120" d="M857.874,506.548c-2.975.5-6.1,2.042-7.113,4.886a10.933,10.933,0,0,0-.4,3.853,12.53,12.53,0,0,0,.9,5.34,15.086,15.086,0,0,0,1.8,2.62c7.121,9.124,10.7,20.583,17.632,29.854.616.817,1.742,1.88,1.395,2.844a6.912,6.912,0,0,0-.331.771,1.542,1.542,0,0,0,.509,1.349,3.291,3.291,0,0,1,.84,1.225c.131.485-.193,1.117-.694,1.079.832,2.574,3.383,4.077,5.8,5.294,4.023,2.027,8.477,3.622,12.954,3.183.84-3.368,2.011-7.174,1.541-10.6a27.531,27.531,0,0,0-2.581-7.521l-3.013-6.581c-2.566-5.618-5.155-11.274-8.731-16.306a24.534,24.534,0,0,1-3.229-5.209c-.917-2.374-3.437-4.046-4.963-6.088-2.266-3.082-4.624-6.165-7.66-8.392C861.319,507.211,859.362,506.3,857.874,506.548Z" transform="translate(-222.673 -159.827)" fill="#f50057"/>
    <path id="Path_121" data-name="Path 121" d="M847.254,421.618a17.834,17.834,0,0,0-6.3,1.325,6.065,6.065,0,0,0-3.661,4.947c0,1.256.462,2.5.3,3.745-.27,2.065-2.189,3.46-3.175,5.286-1.726,3.175-.385,7.213,1.849,10.018s5.263,4.963,7.56,7.752A20.036,20.036,0,0,1,848,470.814a12.788,12.788,0,0,0-.409,3.368c.177,2.019,1.541,3.691,2.9,5.233a241.723,241.723,0,0,1,18.279,24.321,65.725,65.725,0,0,1,4.5,7.706c1.31,2.759,2.312,5.7,4.13,8.145a21.507,21.507,0,0,0,6.065,5.2,42.832,42.832,0,0,0,19.419,6.265l-3.969-9.841a11.3,11.3,0,0,1-1.195-5.464c.439-3.545,4.015-5.872,5.179-9.247a11.216,11.216,0,0,0-.208-6.781c-1.4-4.986-4.208-9.471-5.718-14.426a29.284,29.284,0,0,1-.863-13.416,20.723,20.723,0,0,0,.624-5.934c-.732-6.026-7.8-8.908-11.066-14.017-2.112-3.283-2.52-7.329-3.229-11.166-1.025-5.6-2.851-11.2-6.381-15.667s-8.97-7.706-14.642-7.467a29.59,29.59,0,0,0-8.8,2.2l-7.429,2.7" transform="translate(-218.842 -139.436)" fill="#3f3d56"/>
    <g id="Group_9" data-name="Group 9" transform="translate(614.81 292.516)" opacity="0.1">
      <path id="Path_122" data-name="Path 122" d="M894.2,438.47c.64,3.46,1.04,7.09,2.659,10.18-.224-1.2-.408-2.412-.632-3.6a44.88,44.88,0,0,0-2.481-8.831C893.943,436.967,894.074,437.715,894.2,438.47Z" transform="translate(-847.442 -436.22)"/>
      <path id="Path_123" data-name="Path 123" d="M911.959,478.336a29.428,29.428,0,0,0,.863,13.424,34.68,34.68,0,0,0,1.264,3.468,29.334,29.334,0,0,1-.1-10.311,20.718,20.718,0,0,0,.624-5.934,9.247,9.247,0,0,0-2-4.624C912.491,475.7,912.182,477.019,911.959,478.336Z" transform="translate(-851.526 -444.969)"/>
      <path id="Path_124" data-name="Path 124" d="M921.149,522.924a37.224,37.224,0,0,0-1.541-4.254,9.455,9.455,0,0,1-.293,4.454c-1.164,3.368-4.747,5.7-5.178,9.247a11.214,11.214,0,0,0,1.194,5.464c.262.655.524,1.318.771,1.973a6.37,6.37,0,0,1,0-.855c.439-3.545,4.015-5.872,5.178-9.247A10.755,10.755,0,0,0,921.149,522.924Z" transform="translate(-852.108 -455.133)"/>
      <path id="Path_125" data-name="Path 125" d="M885.6,534.424a21.578,21.578,0,0,1-6.065-5.209c-1.826-2.443-2.828-5.394-4.138-8.145a64.978,64.978,0,0,0-4.5-7.706,242.038,242.038,0,0,0-18.271-24.328c-.239-.27-.47-.547-.7-.825a7.918,7.918,0,0,0-.177,2.173c.177,2.019,1.541,3.691,2.9,5.232a241.751,241.751,0,0,1,18.279,24.321,65.716,65.716,0,0,1,4.5,7.706c1.31,2.759,2.312,5.7,4.13,8.145a21.507,21.507,0,0,0,6.065,5.2,42.831,42.831,0,0,0,19.419,6.265l-2.7-6.627a42.878,42.878,0,0,1-18.741-6.2Z" transform="translate(-837.804 -448.146)"/>
      <path id="Path_126" data-name="Path 126" d="M841.8,454.682c-2.312-2.79-5.325-4.909-7.56-7.745-.2-.262-.393-.532-.586-.817a11.22,11.22,0,0,0,2.612,7.39c2.235,2.844,5.263,4.963,7.56,7.752a19.269,19.269,0,0,1,2.312,3.514,20.035,20.035,0,0,0-4.339-10.1Z" transform="translate(-833.658 -438.491)"/>
    </g>
    <path id="Path_127" data-name="Path 127" d="M432.916,352.646l-5.587-5.618a2.967,2.967,0,0,0-4.215,0l-35.086,34.762-14.842-14.95a2.959,2.959,0,0,0-4.184,0l-5.649,5.587a3,3,0,0,0,0,4.215l22.54,22.71a2.99,2.99,0,0,0,4.208,0l42.815-42.492a2.967,2.967,0,0,0,0-4.215Z" transform="translate(-110.768 -123.043)" fill="#1de9b6"/>
    <path id="Path_128" data-name="Path 128" d="M633.916,352.646l-5.587-5.618a2.967,2.967,0,0,0-4.215,0l-35.086,34.762-14.842-14.95a2.959,2.959,0,0,0-4.184,0l-5.649,5.587a3,3,0,0,0,0,4.215l22.54,22.71a2.99,2.99,0,0,0,4.208,0l42.815-42.492a2.967,2.967,0,0,0,0-4.215Z" transform="translate(-156.875 -123.043)" fill="#1de9b6"/>
  </g>
</svg>
