<svg xmlns="http://www.w3.org/2000/svg" xmlns:xlink="http://www.w3.org/1999/xlink" width="518" height="309" viewBox="0 0 518 309">
  <defs>
    <linearGradient id="linear-gradient" x1="-5.321" y1="1" x2="-5.321" gradientUnits="objectBoundingBox">
      <stop offset="0" stop-color="gray" stop-opacity="0.251"/>
      <stop offset="0.54" stop-color="gray" stop-opacity="0.122"/>
      <stop offset="1" stop-color="gray" stop-opacity="0.102"/>
    </linearGradient>
    <clipPath id="clip-Prancheta_1">
      <rect width="518" height="309"/>
    </clipPath>
  </defs>
  <g id="Prancheta_1" data-name="Prancheta – 1" clip-path="url(#clip-Prancheta_1)">
    <rect width="518" height="309" fill="#fff"/>
    <g id="Grupo_94" data-name="Grupo 94" transform="translate(-1670.011 -16448.438)">
      <path id="Caminho_414" data-name="Caminho 414" d="M236.4,3C366.963,3,472.8,19.816,472.8,41.452S366.963,80.626,236.4,80.626,0,63.087,0,41.452,105.841,3,236.4,3Z" transform="translate(1695.027 16664.842)" opacity="0.1"/>
      <path id="Caminho_413" data-name="Caminho 413" d="M29.648,83.91c10.193,23.023-2.812,49.543-18.1,69.533C6.425,160.134.79,167.138.071,175.561c-.856,10.271,6.1,19.716,14.356,25.889A60.448,60.448,0,0,0,67.951,210.5c15.481-4.891,28.5-15.979,44.108-20.45,26.129-7.479,53.8,4.921,76.16,20.362,15.823,10.927,32.771,24.211,51.846,21.878,13.431-1.643,24.828-11.069,32.556-22.172,3.732-5.38,6.98-11.362,12.419-14.982a31.012,31.012,0,0,1,10.829-4.1c34.678-7.41,71.475,10.677,105.693,1.374,23.111-6.285,41.541-24.554,53-45.581s16.806-44.779,21.262-68.31c3.165-16.723,5.791-34.766-1.467-50.154-7.7-16.278-25.517-26.143-43.424-27.987s-35.872,3.267-52.37,10.477c-20.616,9.014-40.822,21.634-63.326,21.678-15.324.029-29.934-5.869-44.588-10.335C246.1,14.7,220.668,10.973,195.268,7.535c-24.3-3.292-48.843-6.359-73.294-4.4C104.674,4.507,89.4,11.12,72.612,14.177c-10.942,2-21.937.489-32.673,3.869C26.733,22.179,13.116,31.77,12.387,46.86,11.7,61.205,24.239,71.687,29.648,83.91Z" transform="translate(2166.018 16693) rotate(180)" fill="#c9d4ff"/>
      <g id="undraw_street_food_hm5i" transform="translate(1738.657 16540.479)">
        <path id="Caminho_316" data-name="Caminho 316" d="M432.983,324.074l-21.689-1.6H126.14V280.7H432.983Z" transform="translate(-68.991 -168.512)" fill="#f5f5f5"/>
        <path id="Caminho_318" data-name="Caminho 318" d="M495.312,340.469V404.2l-20.914-.272c0-.453.032-.906.032-1.332a41.231,41.231,0,1,0-82.461,0v.267l-20.874-.272H262.907a41.228,41.228,0,0,0-.254-4.531c-.077-.725-.172-1.436-.294-2.143a40.522,40.522,0,0,0-1.241-5.374c-.217-.725-.453-1.436-.716-2.143a41.5,41.5,0,0,0-2.41-5.355c-.39-.729-.806-1.441-1.241-2.143a41.3,41.3,0,0,0-3.946-5.355q-.965-1.11-2-2.143a41.231,41.231,0,0,0-58.262,0q-1.038,1.038-2,2.143A41.318,41.318,0,0,0,186.6,380.9c-.453.7-.852,1.414-1.241,2.143a41.5,41.5,0,0,0-2.41,5.355c-.258.707-.5,1.418-.716,2.143a40.5,40.5,0,0,0-1.242,5.355c-.122.707-.217,1.418-.294,2.143a41.247,41.247,0,0,0-.254,4.531H139.21V261.75H430l28.848,62.9L494.7,340.2Z" transform="translate(-119.807 -248.361)" fill="rgba(0,49,230,0.78)"/>
        <path id="Caminho_319" data-name="Caminho 319" d="M49.245,33.09H322.274A11.327,11.327,0,0,1,333.6,44.417v2.062H42.82V39.51A6.42,6.42,0,0,1,49.245,33.09Z" transform="translate(-23.422 -33.09)" fill="#f5f5f5"/>
        <rect id="Retângulo_303" data-name="Retângulo 303" width="37.484" height="25.704" rx="11" transform="translate(13.508 133.338)" opacity="0.1"/>
        <path id="Caminho_321" data-name="Caminho 321" d="M516.5,202.887H485.44V62.05h61.044v97.459Z" transform="translate(-265.497 -48.929)" opacity="0.1"/>
        <rect id="Retângulo_304" data-name="Retângulo 304" width="37.484" height="25.704" rx="5" transform="translate(12.973 134.412)" fill="#f5f5f5"/>
        <rect id="Retângulo_305" data-name="Retângulo 305" width="20.348" height="29.99" rx="10.174" transform="translate(364.259 132.269)" opacity="0.1"/>
        <rect id="Retângulo_306" data-name="Retângulo 306" width="20.348" height="29.99" rx="4" transform="translate(365.328 132.804)" fill="#f5f5f5"/>
        <rect id="Retângulo_309" data-name="Retângulo 309" width="44.982" height="62.118" rx="7" transform="translate(228.778 23.565)" fill="#f5f5f5"/>
        <rect id="Retângulo_310" data-name="Retângulo 310" width="5.89" height="12.854" transform="translate(265.192 91.034)" fill="#1a2246"/>
        <path id="Caminho_324" data-name="Caminho 324" d="M740.78,300.683V345.04a2.5,2.5,0,0,0,2.5,2.5h27.3a2.5,2.5,0,0,0,2.129-3.81l-27.3-44.357a2.5,2.5,0,0,0-4.631,1.309Z" transform="translate(-448.815 -268.288)" fill="#f5f5f5"/>
        <path id="Caminho_325" data-name="Caminho 325" d="M519.4,85.1,504.94,97.949v6.7L525.555,85.1Z" transform="translate(-276.162 -61.535)" fill="#fff"/>
        <path id="Caminho_326" data-name="Caminho 326" d="M504.94,112.4v7.77L539.211,85.1h-6.7Z" transform="translate(-276.162 -61.535)" fill="#fff"/>
        <path id="Caminho_327" data-name="Caminho 327" d="M653.462,117.6,644.4,130.178V135l12.029-12.582Z" transform="translate(-352.435 -79.31)" fill="#fff"/>
        <path id="Caminho_328" data-name="Caminho 328" d="M660.553,145.36l-16.153,13.8v3.883l19.773-12.854Z" transform="translate(-352.435 -94.492)" fill="#fff"/>
        <circle id="Elipse_170" data-name="Elipse 170" cx="28.916" cy="28.916" r="28.916" transform="translate(72.948 125.31)" fill="#1a2246"/>
        <circle id="Elipse_171" data-name="Elipse 171" cx="16.066" cy="16.066" r="16.066" transform="translate(85.798 138.159)" fill="#fff"/>
        <circle id="Elipse_172" data-name="Elipse 172" cx="4.286" cy="4.286" r="4.286" transform="translate(97.311 149.672)" fill="#1a2246"/>
        <circle id="Elipse_173" data-name="Elipse 173" cx="28.916" cy="28.916" r="28.916" transform="translate(284.471 125.31)" fill="#1a2246"/>
        <circle id="Elipse_174" data-name="Elipse 174" cx="16.066" cy="16.066" r="16.066" transform="translate(297.32 138.159)" fill="#fff"/>
        <circle id="Elipse_175" data-name="Elipse 175" cx="4.286" cy="4.286" r="4.286" transform="translate(309.368 149.672)" fill="#1a2246"/>
        <rect id="Retângulo_311" data-name="Retângulo 311" width="200.812" height="2.143" transform="translate(19.131 110.045)" opacity="0.1"/>
        <path id="Caminho_329" data-name="Caminho 329" d="M709.646,278.113H617.81l1.069-1.608v-.535h90.767" transform="translate(-337.893 -165.925)" opacity="0.1"/>
        <path id="Caminho_330" data-name="Caminho 330" d="M710.936,258.023H620.17V255.88h90.766" transform="translate(-339.183 -154.937)" opacity="0.1"/>
        <path id="Caminho_331" data-name="Caminho 331" d="M710.936,237.929H620.17V235.79h90.15" transform="translate(-339.183 -143.95)" opacity="0.1"/>
        <path id="Caminho_332" data-name="Caminho 332" d="M202.49,491.63a41.069,41.069,0,0,0-3.675,2.143H138.61V491.63Z" transform="translate(-119.479 -374.086)" opacity="0.1"/>
        <path id="Caminho_333" data-name="Caminho 333" d="M462.051,491.63v2.143H366.5a41.069,41.069,0,0,0-3.675-2.143Z" transform="translate(-242.108 -374.086)" opacity="0.1"/>
        <path id="Caminho_334" data-name="Caminho 334" d="M192.214,508.18q-1.038,1.037-2,2.143H138.61V508.18Z" transform="translate(-119.479 -383.138)" opacity="0.1"/>
        <path id="Caminho_335" data-name="Caminho 335" d="M474.455,508.18v2.143H387.508q-.965-1.11-2-2.143Z" transform="translate(-254.513 -383.138)" opacity="0.1"/>
        <path id="Caminho_336" data-name="Caminho 336" d="M186.27,524.72c-.453.7-.852,1.414-1.241,2.143H138.61V524.72Z" transform="translate(-119.479 -392.184)" opacity="0.1"/>
        <path id="Caminho_337" data-name="Caminho 337" d="M481.631,524.72v2.143H399.871c-.39-.73-.806-1.441-1.241-2.143Z" transform="translate(-261.688 -392.184)" opacity="0.1"/>
        <path id="Caminho_338" data-name="Caminho 338" d="M221.4,541.27c-.258.707-.5,1.418-.716,2.143H209.52V541.27Z" transform="translate(-158.261 -401.235)" opacity="0.1"/>
        <path id="Caminho_339" data-name="Caminho 339" d="M486.039,541.27v2.143H407.406c-.217-.725-.453-1.436-.716-2.143Z" transform="translate(-266.096 -401.235)" opacity="0.1"/>
        <path id="Caminho_340" data-name="Caminho 340" d="M219.438,557.82c-.122.707-.217,1.418-.295,2.143H209.52V557.82Z" transform="translate(-158.261 -410.286)" opacity="0.1"/>
        <path id="Caminho_341" data-name="Caminho 341" d="M488.4,557.82v2.143H411.3c-.077-.725-.172-1.436-.295-2.143Z" transform="translate(-268.459 -410.286)" opacity="0.1"/>
        <path id="Caminho_389" data-name="Caminho 389" d="M96.733,419.621s-.249,2.447,1.241,3.675c0,0,4.617,6.08,6.914,9.515-.131.933-.222,1.5-.222,1.5h0v.127h.059l-.059.381h.063a72.673,72.673,0,0,0-1.812,11.526v.489s.535,7.82.553,13.883c0,2.95-.15,5.405-.553,6.2-.512,1.006-.684,5.944-.68,11.549,0,8.128.381,17.883.68,19.061a1.214,1.214,0,0,0,.353.566c-.453,1.812-1.318,4.354-2.587,4.821a2.428,2.428,0,0,0-1.581,2.1v.4a.2.2,0,0,0,.032.131v.045a.357.357,0,0,0,.045.127v.041c0,.045.041.086.063.127v.032a1.529,1.529,0,0,0,.227.294h0l.122.109.05.036.113.077.068.041.118.064.082.036.127.05.091.032.14.041.1.027.159.032h.7c3.226,0,4.961-.734,5.954-2.2l1.985-.489v-.054h0V503.5h0l.045-.236v-.014l.023-.131h0c.023-.14.05-.29.077-.453v-.027c.027-.163.05-.335.077-.517h0c.027-.181.05-.367.073-.562v-.023c0-.19.041-.385.059-.585v-.249a2.689,2.689,0,0,1,.027-.381V499.7h.195l1.735-27.425,6.2-24.467,2.972,20.538v3.783c0,5.849.113,16.628,1.01,18.046a6.636,6.636,0,0,1,.548,3.081,46.63,46.63,0,0,1-.548,5.981h.073c-.045.313-.073.494-.073.494h.227c-.163,1.6-.208,3.344-.222,4.173h0v.489s4.218.489,4.961.489c4.159,0,9.424,1.957,11.16.734l.15-.118.032-.027.091-.086.023-.027.068-.086v-.023a.686.686,0,0,0,.05-.091h0a.54.54,0,0,0,.027-.1h0a.491.491,0,0,0,0-.1h0a.516.516,0,0,0,0-.1h0c-.24-.865-2.7-1.622-4.418-2.379-1.486-.652-2.75-3.149-3.43-4.744a1.119,1.119,0,0,0,.249-.979,1.155,1.155,0,0,0-.041-.643c-.906-2.719-1.2-25.645-1.237-29.174l2.229-15.885a10.329,10.329,0,0,0,.254-2.9,117.971,117.971,0,0,0-1.155-13.257h.652l-.082-.489h.082l-.992-5.89v-7.68l1.241-13.47,1.486.979c.113,0,.326-.163.6-.453,3.172,1.391,7.249,3.172,9.565,4.1,4.218,1.713,4.463,0,4.463,0l8.183-15.917s14.385-5.89,9.673-8.328-11.409,2.447-12.4,4.9-6.7,10.285-7.938,11.753-1.985.489-3.226-.734a35.121,35.121,0,0,0-3.312-2.573l.091-.122a3.707,3.707,0,0,1-1.3-.983c-1.966-2.216-6.2-6.669-8.609-6.851-3-.227-6.864-3.212-7.381-3.625a11.691,11.691,0,0,1,.027-2.166h.023a.78.78,0,0,1,.027-.249,7.617,7.617,0,0,0,6.062-7.422,4.81,4.81,0,0,0-.023-.571.226.226,0,0,0,.136,0c.317-.091.489-3.1.489-3.511a2.591,2.591,0,0,1,.186-.816c.1-.227.276-.421.376-.652a1.323,1.323,0,0,0,.086-.63,3.018,3.018,0,0,0-.353-1.391,24.23,24.23,0,0,0-2.655-4.9,1.627,1.627,0,0,0-.6-.548,2.208,2.208,0,0,0-.865-.1,12.808,12.808,0,0,1-3.919-1.083,4.5,4.5,0,0,0-3.933.14c-1.115.77-1.536,2.3-2.719,2.909-.326.163-.689.249-1.01.426a3.892,3.892,0,0,0-.838,1.078,8.156,8.156,0,0,0-1.59,2.614,6.855,6.855,0,0,0-.217,2.034v.684c0,1.359.145,2.918,1.255,3.72a2.608,2.608,0,0,1,.643.666,2.021,2.021,0,0,1,.3,1.1c.054.757.353,1.513.408,2.265a1.531,1.531,0,0,0,.218.82.544.544,0,0,0,.757.145l.045-.19c.082.118.163.236.249.349a13.732,13.732,0,0,1-1.45,4.531h-.163a5.677,5.677,0,0,0-3.285,1.078c-2.786,1.98-8.523,3.575-8.523,3.575a2.623,2.623,0,0,0-.784,1.54,46.831,46.831,0,0,0-2.555,7.521h0a18,18,0,0,0-.729,3.937v.1h.036l-.041.217.879.213C96.837,410.632,95.858,417.2,96.733,419.621Zm5.437-1.223a51.128,51.128,0,0,0,1.69-4.948,12.32,12.32,0,0,0,1.536,3.48c.453.512.6,1.812.616,3.57a58.469,58.469,0,0,1-.362,5.863,53.141,53.141,0,0,1-3.462-7.965Z" transform="translate(-96.387 -304.891)" fill="url(#linear-gradient)"/>
        <path id="Caminho_390" data-name="Caminho 390" d="M161.5,652.113s1.69,5.07,3.86,6.035,5.55,1.93,3.86,3.135-6.8-.725-10.874-.725c-.725,0-4.825-.485-4.825-.485s0-6.515.965-7.7S161.5,652.113,161.5,652.113Z" transform="translate(-127.634 -461.668)" fill="#59495d"/>
        <path id="Caminho_391" data-name="Caminho 391" d="M108.786,652.53s-.965,5.79-2.9,6.515-2.415,3.86.725,3.86,4.825-.725,5.79-2.17l1.93-.485s1.205-5.55,0-7Z" transform="translate(-100.743 -462.085)" fill="#59495d"/>
        <path id="Caminho_392" data-name="Caminho 392" d="M161.5,652.113s1.69,5.07,3.86,6.035,5.55,1.93,3.86,3.135-6.8-.725-10.874-.725c-.725,0-4.825-.485-4.825-.485s0-6.515.965-7.7S161.5,652.113,161.5,652.113Z" transform="translate(-127.634 -461.668)" fill="#59495d"/>
        <path id="Caminho_393" data-name="Caminho 393" d="M108.786,652.53s-.965,5.79-2.9,6.515-2.415,3.86.725,3.86,4.825-.725,5.79-2.17l1.93-.485s1.205-5.55,0-7Z" transform="translate(-100.743 -462.085)" fill="#59495d"/>
        <path id="Caminho_394" data-name="Caminho 394" d="M176.29,427.112a69.386,69.386,0,0,1,5.79,4.345c1.205,1.21,1.93,2.17,3.135.725s6.755-9.17,7.7-11.585,7.48-7.249,12.066-4.825-9.411,8.205-9.411,8.205l-7.943,15.686s-.24,1.69-4.345,0-13.756-6.026-13.756-6.026Z" transform="translate(-136.39 -332.236)" fill="#f0b9bb"/>
        <path id="Caminho_395" data-name="Caminho 395" d="M138.779,511.974s2.17,14.952,1.205,17.861l-2.17,15.686s.24,26.306,1.205,29.2-8.69,3.14-8.69,3.14,1.205-7.48,0-9.411-.965-21.481-.965-21.481l-2.909-20.276-6.035,24.131-1.667,27.036s-6.515-.24-7-2.17-1.205-27.271,0-29.686,0-20.271,0-20.271.965-13.756,3.86-15.446S138.779,511.974,138.779,511.974Z" transform="translate(-104.43 -384.031)" opacity="0.1"/>
        <path id="Caminho_396" data-name="Caminho 396" d="M138.779,510.9s2.17,14.952,1.205,17.861l-2.17,15.686s.24,26.306,1.205,29.2-8.69,3.135-8.69,3.135,1.205-7.481,0-9.411-.965-21.481-.965-21.481l-2.909-20.271-6.035,24.131-1.667,27.031s-6.515-.24-7-2.17-1.205-27.271,0-29.686,0-20.271,0-20.271.965-13.756,3.86-15.446S138.779,510.9,138.779,510.9Z" transform="translate(-104.43 -383.441)" fill="#524d64"/>
        <path id="Caminho_397" data-name="Caminho 397" d="M132.035,400.06s-.485,11.585-4.585,9.41l3.625,10.874,8.205-.485,4.825-6.515-3.625-2.17s-2.655.965-.725-7.965Z" transform="translate(-113.376 -324.005)" fill="#f0b9bb"/>
        <path id="Caminho_398" data-name="Caminho 398" d="M127.211,420.485s4.1,3.38,7.249,3.625c2.352.181,6.47,4.572,8.382,6.755a3.625,3.625,0,0,0,1.269.97s-4.825,6.755-5.55,6.755l-1.45-.965L135.906,450.9v7.965l.965,5.79s-15.206.24-16.651-.965-9.655.965-9.655.965,2.415-15.686.725-17.616-4.585-15.446-4.585-15.446-1.93-5.55,0-7.249c0,0,5.577-1.568,8.291-3.52a5.478,5.478,0,0,1,3.194-1.065h.177a4.745,4.745,0,0,0,3.783,4.345C125.77,424.825,128.063,423.493,127.211,420.485Z" transform="translate(-101.561 -334.779)" opacity="0.1"/>
        <path id="Caminho_399" data-name="Caminho 399" d="M127.211,419.419s4.1,3.38,7.249,3.625c2.352.181,6.47,4.572,8.382,6.755a3.625,3.625,0,0,0,1.269.97s-4.825,6.755-5.55,6.755l-1.45-.965-1.205,13.275V457.8l.965,5.79s-15.206.24-16.651-.965-9.655.965-9.655.965,2.415-15.686.725-17.616-4.585-15.446-4.585-15.446-1.93-5.55,0-7.249c0,0,5.577-1.568,8.291-3.521a5.479,5.479,0,0,1,3.194-1.065h.177a4.745,4.745,0,0,0,3.783,4.345C125.77,423.755,128.063,422.455,127.211,419.419Z" transform="translate(-101.561 -334.194)" fill="#e2e8f0"/>
        <path id="Caminho_400" data-name="Caminho 400" d="M107.059,442.609s-7.249-.965-7.965-.965,2.415-11.825,4.1-13.031,3.86,4.345,3.86,4.345Z" transform="translate(-97.81 -339.528)" fill="#e2e8f0"/>
        <g id="Grupo_89" data-name="Grupo 89" transform="translate(5.149 85.339)" opacity="0.1">
          <path id="Caminho_401" data-name="Caminho 401" d="M150.392,421.207c.295,2.157-1.241,3.267-3.752,3.149,2.3-.127,3.552-1.45,2.891-3.806C149.522,420.555,149.857,420.822,150.392,421.207Z" transform="translate(-129.02 -420.55)"/>
          <path id="Caminho_402" data-name="Caminho 402" d="M176.411,458.38l1.1.734a.793.793,0,0,1-.376.231l-.766-.512Z" transform="translate(-145.279 -441.24)"/>
          <path id="Caminho_403" data-name="Caminho 403" d="M107.75,445.07s3.625,13.516,5.31,15.446c1.581,1.812-.43,15.65-.693,17.43l-.752.19s2.415-15.686.725-17.616S107.75,445.07,107.75,445.07Z" transform="translate(-107.75 -433.96)"/>
          <path id="Caminho_404" data-name="Caminho 404" d="M136.6,515.462c1.01.843,8.69.979,13.262.983-4.431,0-12.922-.1-13.982-.983a2.487,2.487,0,0,0-1.409-.358A3.383,3.383,0,0,1,136.6,515.462Z" transform="translate(-122.364 -472.255)"/>
        </g>
        <path id="Caminho_405" data-name="Caminho 405" d="M100.026,452.6s-2.415,11.585-1.205,14.952c0,0-.24,2.415,1.205,3.625,0,0,7.965,10.62,7.965,11.585s2.415,5.55,6.515,1.69c0,0,1.93-2.655-2.415-4.825s-7.965-13.275-7.965-13.275,3.625-8.93,2.17-11.826S100.026,452.6,100.026,452.6Z" transform="translate(-97.532 -352.656)" fill="#f0b9bb"/>
        <path id="Caminho_406" data-name="Caminho 406" d="M11.5,255.375l-8.93-2.17.729-3.983,3.856-.6,5.07,1.685Z" transform="translate(-1.409 -150.967)" opacity="0.1"/>
        <path id="Caminho_407" data-name="Caminho 407" d="M11.5,254.84l-8.93-2.175.729-3.983,3.856-.6,5.07,1.69Z" transform="translate(-1.409 -150.671)" fill="#e2e8f0"/>
        <path id="Caminho_408" data-name="Caminho 408" d="M137.012,400.59l7.7,3.135a33.89,33.89,0,0,0-.616,3.7,7.485,7.485,0,0,1-7.548-2.841A35.065,35.065,0,0,0,137.012,400.59Z" transform="translate(-118.353 -324.295)" opacity="0.1"/>
        <circle id="Elipse_177" data-name="Elipse 177" cx="7.48" cy="7.48" r="7.48" transform="translate(16.729 68.09)" fill="#f0b9bb"/>
        <path id="Caminho_409" data-name="Caminho 409" d="M146.052,377.942a2.583,2.583,0,0,1,.177-.8c.1-.222.272-.417.363-.643a2.238,2.238,0,0,0-.258-1.749,23.976,23.976,0,0,0-2.587-4.83,1.591,1.591,0,0,0-.584-.539,2.125,2.125,0,0,0-.843-.1,12.346,12.346,0,0,1-3.81-1.065,4.358,4.358,0,0,0-3.829.136c-1.11.757-1.491,2.266-2.664,2.868-.317.163-.671.245-.983.421a3.81,3.81,0,0,0-1.06,1.038,6.035,6.035,0,0,0-1.753,5.011c0,1.359.14,2.873,1.219,3.665a2.559,2.559,0,0,1,.625.657,2.012,2.012,0,0,1,.29,1.083c.054.748.344,1.491.4,2.238a1.522,1.522,0,0,0,.213.811.526.526,0,0,0,.738.145l.757-3.113a4.244,4.244,0,0,1,.7-1.731c.562-.689,1.563-1.033,1.862-1.876.213-.6.027-1.382.5-1.812a1.536,1.536,0,0,1,.693-.3,16.415,16.415,0,0,1,6.62-.2,1.891,1.891,0,0,1,.675.213,2.029,2.029,0,0,1,.716,1.124c.159.453.743,2.986,1.359,2.814C145.884,381.308,146.052,378.336,146.052,377.942Z" transform="translate(-113.773 -306.386)" opacity="0.1"/>
        <path id="Caminho_410" data-name="Caminho 410" d="M146.054,377.4a2.583,2.583,0,0,1,.177-.8c.1-.222.272-.417.362-.643a2.238,2.238,0,0,0-.258-1.749,23.974,23.974,0,0,0-2.587-4.83,1.59,1.59,0,0,0-.584-.539,2.125,2.125,0,0,0-.843-.1,12.347,12.347,0,0,1-3.81-1.065,4.357,4.357,0,0,0-3.829.136c-1.11.757-1.491,2.265-2.664,2.868-.317.163-.671.245-.983.421a3.812,3.812,0,0,0-1.06,1.038,6.035,6.035,0,0,0-1.753,4.993c0,1.359.14,2.872,1.219,3.665a2.56,2.56,0,0,1,.625.657,2.011,2.011,0,0,1,.3,1.115c.054.748.344,1.491.4,2.238a1.522,1.522,0,0,0,.213.811.526.526,0,0,0,.748.122l.757-3.113a4.246,4.246,0,0,1,.7-1.731c.562-.689,1.563-1.033,1.862-1.876.213-.6.027-1.382.5-1.812a1.535,1.535,0,0,1,.693-.3,16.417,16.417,0,0,1,6.62-.2,1.893,1.893,0,0,1,.675.213,2.029,2.029,0,0,1,.716,1.124c.159.453.743,2.986,1.359,2.814C145.887,380.759,146.054,377.809,146.054,377.4Z" transform="translate(-113.775 -306.091)" fill="#575168"/>
        <ellipse id="Elipse_178" data-name="Elipse 178" cx="0.725" cy="1.69" rx="0.725" ry="1.69" transform="translate(18.537 73.518)" fill="#f0b9bb"/>
        <path id="Caminho_411" data-name="Caminho 411" d="M158.385,669.536c4.046,0,9.17,1.93,10.874.725a1.21,1.21,0,0,0,.394-.417c.14.286.045.584-.394.906-1.69,1.205-6.8-.725-10.874-.725-.725,0-4.825-.485-4.825-.485v-.48C153.655,669.065,157.669,669.536,158.385,669.536Z" transform="translate(-127.656 -471.125)" opacity="0.1"/>
        <path id="Caminho_412" data-name="Caminho 412" d="M106.591,665.975c3.135,0,4.825-.725,5.79-2.17l1.93-.485a26.159,26.159,0,0,0,.535-4.3,24.679,24.679,0,0,1-.535,4.785l-1.93.485c-.965,1.45-2.655,2.17-5.79,2.17-1.749,0-2.374-.979-2.265-1.966C104.457,665.291,105.132,665.975,106.591,665.975Z" transform="translate(-100.722 -465.634)" opacity="0.1"/>
        <rect id="Retângulo_318" data-name="Retângulo 318" width="8.69" height="3.38" transform="translate(19.341 132.09) rotate(160.92)" fill="#524d64"/>
        <rect id="Retângulo_319" data-name="Retângulo 319" width="8.69" height="3.38" transform="translate(19.341 132.09) rotate(160.92)" opacity="0.1"/>
      </g>
      <g id="Grupo_90" data-name="Grupo 90" transform="translate(1784.07 16584.563)">
        <g id="Grupo_6" data-name="Grupo 6" transform="translate(0.024 0)">
          <path id="Caminho_38" data-name="Caminho 38" d="M40.456,38.055H43.9V55.726H40.456Z" transform="translate(-40.456 -37.669)" fill="#fff"/>
          <path id="Caminho_39" data-name="Caminho 39" d="M59.57,43.761V55.726H56.124V38.055h3.722l8.243,12.1v-12.1h3.446V55.726H67.813Z" transform="translate(-42.999 -37.669)" fill="#fff"/>
          <path id="Caminho_40" data-name="Caminho 40" d="M92.893,51.977l4.852-13.922h3.611L94.822,55.726H90.769L84.236,38.055h3.8Z" transform="translate(-47.561 -37.669)" fill="#fff"/>
          <path id="Caminho_41" data-name="Caminho 41" d="M114.452,38.055H117.9V55.726h-3.446Z" transform="translate(-52.465 -37.669)" fill="#fff"/>
          <path id="Caminho_42" data-name="Caminho 42" d="M139.816,42.914a4.7,4.7,0,0,0-1.737-1.474,5.085,5.085,0,0,0-2.4-.593,3.271,3.271,0,0,0-1.917.5,1.5,1.5,0,0,0-.7,1.268,1.615,1.615,0,0,0,.5,1.089,8.712,8.712,0,0,0,2.991,1.35,16.657,16.657,0,0,1,3.461,1.433,5.549,5.549,0,0,1,1.433,1.241,4.408,4.408,0,0,1,.689,1.31,4.962,4.962,0,0,1,.221,1.516,4.884,4.884,0,0,1-1.875,3.942,7.426,7.426,0,0,1-4.88,1.544,11.71,11.71,0,0,1-2.619-.3,7.16,7.16,0,0,1-2.454-1.076,6.755,6.755,0,0,1-1.82-1.792l2.454-2.288a5.31,5.31,0,0,0,1.957,1.639,5.692,5.692,0,0,0,2.537.565,3.839,3.839,0,0,0,2.206-.551,1.731,1.731,0,0,0,.165-2.8,8.678,8.678,0,0,0-2.743-1.255,25.9,25.9,0,0,1-2.867-1.061,7.246,7.246,0,0,1-1.267-.772,5.258,5.258,0,0,1-.882-.869,4.216,4.216,0,0,1-.9-2.757,4.5,4.5,0,0,1,1.821-3.68,7.2,7.2,0,0,1,4.631-1.448,10.229,10.229,0,0,1,2.219.276,7.29,7.29,0,0,1,2.358,1.006,6.249,6.249,0,0,1,1.792,1.7Z" transform="translate(-54.778 -37.594)" fill="#fff"/>
          <path id="Caminho_43" data-name="Caminho 43" d="M155.037,38.055h3.446V48.476a4.346,4.346,0,0,0,1.048,3.033,3.542,3.542,0,0,0,2.757,1.158A3.486,3.486,0,0,0,165,51.522a4.329,4.329,0,0,0,1.033-3.019V38.055h3.446V48.531a8.811,8.811,0,0,1-.524,3.074,7.019,7.019,0,0,1-1.474,2.426,6.357,6.357,0,0,1-2.3,1.544,7.9,7.9,0,0,1-2.949.538,8.789,8.789,0,0,1-2.413-.359,6.1,6.1,0,0,1-2.3-1.255,6.27,6.27,0,0,1-1.6-2.04,8.023,8.023,0,0,1-.716-2.137,10.957,10.957,0,0,1-.166-1.792Z" transform="translate(-59.051 -37.669)" fill="#fff"/>
          <path id="Caminho_44" data-name="Caminho 44" d="M194.042,51.757H186.3l-1.545,3.97H181.14l7.113-17.671h4.025l7.112,17.671h-3.831Zm-3.888-10.063-2.7,7h5.4Z" transform="translate(-63.288 -37.669)" fill="#fff"/>
          <path id="Caminho_45" data-name="Caminho 45" d="M212.574,38.055h3.446V52.473h8.628v3.254H212.574Z" transform="translate(-68.389 -37.669)" fill="#fff"/>
        </g>
        <g id="Grupo_7" data-name="Grupo 7" transform="translate(0 23.216)">
          <path id="Caminho_46" data-name="Caminho 46" d="M40.427,65.438H42.7a1.6,1.6,0,0,1,1.7,1.51,1.375,1.375,0,0,1-.895,1.266,1.47,1.47,0,0,1,1.121,1.429,1.663,1.663,0,0,1-1.772,1.582H40.427Zm.543.488v2.088h1.673a1.054,1.054,0,1,0-.009-2.088Zm0,2.558v2.251h1.809a1.135,1.135,0,1,0,0-2.251Z" transform="translate(-40.427 -65.329)" fill="#fff"/>
          <path id="Caminho_47" data-name="Caminho 47" d="M51.452,65.427H53.46c1.184,0,1.971.66,1.971,1.672a1.639,1.639,0,0,1-1.484,1.628l1.565,2.5h-.624l-1.52-2.45H51.995v2.45h-.543Zm.543.488v2.369H53.5a1.2,1.2,0,1,0,0-2.369Z" transform="translate(-42.216 -65.327)" fill="#fff"/>
          <path id="Caminho_48" data-name="Caminho 48" d="M65.816,69.577H62.85l-.688,1.645H61.6l2.442-5.8h.632l2.432,5.8H66.5Zm-1.484-3.571L63.05,69.089h2.567Z" transform="translate(-43.863 -65.327)" fill="#fff"/>
          <path id="Caminho_49" data-name="Caminho 49" d="M74.38,66.277v4.945h-.533v-5.8h.587l3.652,4.954V65.427h.543v5.8h-.6Z" transform="translate(-45.851 -65.327)" fill="#fff"/>
          <path id="Caminho_50" data-name="Caminho 50" d="M86.059,65.438H87.7c1.953,0,3.265,1.166,3.265,2.893a2.87,2.87,0,0,1-3.137,2.893H86.059Zm.552.506v4.774h1.13a2.4,2.4,0,1,0-.008-4.774Z" transform="translate(-47.833 -65.329)" fill="#fff"/>
          <path id="Caminho_51" data-name="Caminho 51" d="M98.032,65.427h.543v5.8h-.543Z" transform="translate(-49.776 -65.327)" fill="#fff"/>
          <path id="Caminho_52" data-name="Caminho 52" d="M105.729,66.277v4.945H105.2v-5.8h.586l3.653,4.954V65.427h.542v5.8h-.6Z" transform="translate(-50.938 -65.327)" fill="#fff"/>
          <path id="Caminho_53" data-name="Caminho 53" d="M119.964,71.3a3,3,0,0,1-.028-5.995,2.907,2.907,0,0,1,2.007.669l-.353.425a2.539,2.539,0,0,0-1.654-.57,2.474,2.474,0,0,0,.073,4.946,3.182,3.182,0,0,0,1.41-.317V68.373h.543v2.432A3.568,3.568,0,0,1,119.964,71.3Z" transform="translate(-52.855 -65.308)" fill="#fff"/>
          <path id="Caminho_54" data-name="Caminho 54" d="M139.172,66.51a1.947,1.947,0,0,0-1.519-.7c-.822,0-1.365.379-1.365.958,0,1.492,3.408.813,3.408,2.883,0,.994-.787,1.646-2.043,1.646a2.545,2.545,0,0,1-2.124-.95l.389-.361a2.168,2.168,0,0,0,1.736.8c.932,0,1.474-.434,1.474-1.084,0-1.665-3.4-.941-3.4-2.921,0-.885.778-1.483,1.943-1.483a2.342,2.342,0,0,1,1.891.833Z" transform="translate(-55.861 -65.308)" fill="#fff"/>
          <path id="Caminho_55" data-name="Caminho 55" d="M151.957,68.319a2.935,2.935,0,1,1-2.939-3.011A2.96,2.96,0,0,1,151.957,68.319Zm-.56,0a2.375,2.375,0,1,0-2.378,2.46A2.435,2.435,0,0,0,151.4,68.319Z" transform="translate(-57.575 -65.308)" fill="#fff"/>
          <path id="Caminho_56" data-name="Caminho 56" d="M159.228,65.427h.543v5.289h3.156v.506h-3.7Z" transform="translate(-59.707 -65.327)" fill="#fff"/>
          <path id="Caminho_57" data-name="Caminho 57" d="M168.96,65.427h.533v3.635a1.644,1.644,0,1,0,3.283.009V65.427h.543v3.626a2.181,2.181,0,1,1-4.359,0Z" transform="translate(-61.287 -65.327)" fill="#fff"/>
          <path id="Caminho_58" data-name="Caminho 58" d="M182.171,65.933v5.289h-.543V65.933h-1.935v-.506h4.421v.506Z" transform="translate(-63.028 -65.327)" fill="#fff"/>
          <path id="Caminho_59" data-name="Caminho 59" d="M190.588,65.427h.543v5.8h-.543Z" transform="translate(-64.797 -65.327)" fill="#fff"/>
          <path id="Caminho_60" data-name="Caminho 60" d="M203.252,68.319a2.935,2.935,0,1,1-2.939-3.011A2.96,2.96,0,0,1,203.252,68.319Zm-.561,0a2.375,2.375,0,1,0-2.377,2.46A2.434,2.434,0,0,0,202.691,68.319Z" transform="translate(-65.9 -65.308)" fill="#fff"/>
          <path id="Caminho_61" data-name="Caminho 61" d="M211.025,66.277v4.945h-.534v-5.8h.587l3.652,4.954V65.427h.543v5.8h-.6Z" transform="translate(-68.027 -65.327)" fill="#fff"/>
          <path id="Caminho_62" data-name="Caminho 62" d="M225.784,66.51a1.947,1.947,0,0,0-1.519-.7c-.822,0-1.365.379-1.365.958,0,1.492,3.409.813,3.409,2.883,0,.994-.787,1.646-2.044,1.646a2.544,2.544,0,0,1-2.124-.95l.389-.361a2.169,2.169,0,0,0,1.736.8c.932,0,1.474-.434,1.474-1.084,0-1.665-3.4-.941-3.4-2.921,0-.885.777-1.483,1.944-1.483a2.34,2.34,0,0,1,1.889.833Z" transform="translate(-69.917 -65.308)" fill="#fff"/>
        </g>
      </g>
      <circle id="Elipse_179" data-name="Elipse 179" cx="12.657" cy="12.657" r="12.657" transform="translate(2146.434 16569.107)" fill="#0031e6" opacity="0.1"/>
      <circle id="Elipse_180" data-name="Elipse 180" cx="5.332" cy="5.332" r="5.332" transform="translate(2034.696 16497.949) rotate(-110)" fill="#0031e6" opacity="0.1"/>
      <circle id="Elipse_181" data-name="Elipse 181" cx="8.938" cy="8.938" r="8.938" transform="translate(2003.673 16492.781) rotate(-110)" fill="#0031e6" opacity="0.1"/>
      <circle id="Elipse_182" data-name="Elipse 182" cx="8.938" cy="8.938" r="8.938" transform="translate(2048.476 16489.072) rotate(-110)" fill="#0031e6" opacity="0.1"/>
    </g>
  </g>
</svg>
